<?xml version="1.0" standalone="no"?>
<!DOCTYPE svg PUBLIC "-//W3C//DTD SVG 20010904//EN"
 "http://www.w3.org/TR/2001/REC-SVG-20010904/DTD/svg10.dtd">
<svg version="1.0" xmlns="http://www.w3.org/2000/svg"
 width="1920.000000pt" height="1920.000000pt" viewBox="0 0 1920.000000 1920.000000"
 preserveAspectRatio="xMidYMid meet">

<g transform="translate(0.000000,1920.000000) scale(0.100000,-0.100000)"
fill="#000000" stroke="none">
<path d="M96 19183 c4 -10 7 -33 7 -50 -1 -18 3 -33 8 -33 11 0 15 10 24 63 6
35 4 37 -21 37 -21 0 -25 -3 -18 -17z"/>
<path d="M256 19188 c-9 -29 -15 -90 -9 -104 9 -23 23 -5 23 31 0 19 4 45 10
59 8 21 6 26 -6 26 -8 0 -16 -6 -18 -12z"/>
<path d="M370 19174 c6 -14 10 -46 10 -70 0 -28 4 -43 10 -39 11 7 13 77 4
113 -4 12 -12 22 -20 22 -10 0 -11 -6 -4 -26z"/>
<path d="M524 19168 c3 -17 9 -62 13 -100 l6 -68 -34 -1 c-42 0 -101 -20 -106
-35 -3 -8 17 -7 62 4 69 15 81 13 72 -13 -5 -11 -21 -15 -57 -15 -61 0 -67
-18 -7 -22 54 -4 46 -23 -11 -24 -62 -1 -81 -24 -20 -24 26 0 49 -4 52 -8 9
-15 -68 -80 -126 -107 -87 -40 -145 -42 -262 -11 -113 30 -106 29 -106 15 0
-16 57 -36 154 -54 69 -13 98 -14 137 -6 75 16 159 60 206 109 22 23 46 42 52
42 6 0 25 -9 43 -20 18 -11 39 -20 47 -20 23 0 -4 25 -49 45 -26 12 -40 25
-40 37 0 23 8 23 109 -7 47 -14 86 -23 89 -21 10 11 -11 24 -55 35 -124 31
-124 31 -121 54 3 21 7 22 78 19 93 -5 86 13 -10 25 l-64 8 -13 75 c-17 104
-22 120 -34 120 -8 0 -9 -11 -5 -32z"/>
<path d="M3791 19168 c30 -43 126 -136 164 -159 17 -11 45 -19 63 -19 28 0 35
5 47 33 21 51 53 85 124 133 38 26 58 44 47 44 -34 0 -118 -54 -152 -99 -29
-37 -35 -41 -40 -25 -21 63 -55 124 -68 124 -11 0 -7 -18 20 -76 19 -41 34
-82 32 -90 -5 -23 -164 79 -196 127 -15 21 -35 38 -45 39 -17 0 -16 -3 4 -32z"/>
<path d="M3865 19190 c3 -5 17 -10 30 -10 13 0 27 5 30 10 4 6 -8 10 -30 10
-22 0 -34 -4 -30 -10z"/>
<path d="M9414 19189 c-4 -7 -9 -42 -12 -79 l-4 -67 -58 -11 c-32 -7 -63 -19
-70 -27 -16 -19 -8 -19 64 0 64 17 76 14 76 -19 0 -20 -9 -24 -77 -39 -87 -19
-126 -37 -81 -37 15 0 57 7 94 16 44 10 70 12 77 5 18 -18 0 -36 -62 -59 -33
-13 -61 -28 -61 -33 0 -15 26 -10 91 18 l62 27 21 -30 c58 -80 125 -117 265
-146 100 -20 144 -18 216 10 59 23 139 77 159 106 20 31 35 32 78 6 18 -11 39
-20 47 -20 23 0 -4 25 -49 45 -26 12 -40 25 -40 37 0 23 8 23 109 -7 47 -14
86 -23 89 -21 10 11 -11 24 -55 35 -124 31 -124 31 -121 54 3 21 7 22 78 19
93 -5 86 13 -9 25 l-65 8 -16 92 c-9 51 -19 96 -23 99 -15 15 -17 -6 -7 -67 5
-35 10 -79 10 -96 0 -30 -3 -33 -32 -34 -41 0 -100 -20 -105 -35 -3 -8 17 -7
62 4 69 15 81 13 72 -13 -5 -11 -21 -15 -57 -15 -61 0 -67 -18 -7 -22 56 -4
50 -23 -8 -24 -64 -1 -85 -24 -23 -24 26 0 49 -4 52 -8 9 -15 -68 -80 -126
-107 -88 -40 -146 -42 -263 -10 -102 28 -169 65 -198 109 -10 14 -17 28 -17
31 0 3 20 5 45 5 66 0 55 18 -12 22 -44 2 -58 7 -58 18 0 11 13 16 48 18 56 4
54 22 -4 22 -27 0 -46 7 -61 23 l-23 22 60 5 c57 5 59 6 36 19 -14 8 -38 11
-57 8 l-34 -6 0 47 c0 26 4 62 9 80 8 25 7 32 -4 32 -8 0 -17 -5 -21 -11z"/>
<path d="M9566 19149 c-7 -54 8 -95 18 -48 14 68 14 99 2 99 -9 0 -16 -19 -20
-51z"/>
<path d="M9696 19183 c4 -10 7 -33 7 -50 -1 -18 3 -33 8 -33 11 0 15 10 24 63
6 35 4 37 -21 37 -21 0 -25 -3 -18 -17z"/>
<path d="M9856 19188 c-9 -29 -15 -90 -9 -104 9 -23 23 -5 23 31 0 19 4 45 10
59 8 21 6 26 -6 26 -8 0 -16 -6 -18 -12z"/>
<path d="M9970 19174 c6 -14 10 -46 10 -70 0 -28 4 -43 10 -39 11 7 13 77 4
113 -4 12 -12 22 -20 22 -10 0 -11 -6 -4 -26z"/>
<path d="M13391 19168 c30 -43 126 -136 164 -159 17 -11 45 -19 63 -19 28 0
35 5 47 33 21 51 53 85 124 133 38 26 58 44 47 44 -34 0 -118 -54 -152 -99
-29 -37 -35 -41 -40 -25 -21 63 -55 124 -68 124 -11 0 -7 -18 20 -76 19 -41
34 -82 32 -90 -5 -23 -164 79 -196 127 -15 21 -35 38 -45 39 -17 0 -16 -3 4
-32z"/>
<path d="M13465 19190 c3 -5 17 -10 30 -10 13 0 27 5 30 10 4 6 -8 10 -30 10
-22 0 -34 -4 -30 -10z"/>
<path d="M19014 19189 c-4 -7 -9 -42 -12 -79 l-4 -67 -58 -11 c-32 -7 -63 -19
-70 -27 -16 -19 -8 -19 64 0 64 17 76 14 76 -19 0 -20 -9 -24 -77 -39 -87 -19
-126 -37 -81 -37 15 0 57 7 94 16 44 10 70 12 77 5 18 -18 0 -36 -62 -59 -33
-13 -61 -28 -61 -33 0 -15 26 -10 88 17 l59 25 66 -65 c36 -36 70 -66 76 -66
23 0 9 29 -24 50 -31 19 -75 68 -75 84 0 3 20 6 45 6 66 0 55 18 -12 22 -44 2
-58 7 -58 18 0 11 13 16 48 18 56 4 54 22 -4 22 -27 0 -46 7 -61 23 l-23 22
60 5 c57 5 59 6 36 19 -14 8 -38 11 -57 8 l-34 -6 0 47 c0 26 4 62 9 80 8 25
7 32 -4 32 -8 0 -17 -5 -21 -11z"/>
<path d="M19166 19149 c-7 -54 8 -95 18 -48 14 68 14 99 2 99 -9 0 -16 -19
-20 -51z"/>
<path d="M17 19174 c-8 -9 -10 -78 -1 -86 3 -3 17 -3 32 1 24 7 27 13 27 47 0
34 -3 39 -25 42 -14 2 -29 0 -33 -4z"/>
<path d="M9617 19174 c-8 -9 -10 -78 -1 -86 3 -3 17 -3 32 1 24 7 27 13 27 47
0 34 -3 39 -25 42 -14 2 -29 0 -33 -4z"/>
<path d="M301 19141 c-18 -33 -14 -71 8 -71 26 0 39 19 37 55 -1 36 -29 46
-45 16z"/>
<path d="M9901 19141 c-18 -33 -14 -71 8 -71 26 0 39 19 37 55 -1 36 -29 46
-45 16z"/>
<path d="M94 19050 c-12 -4 -24 -16 -28 -25 -9 -23 27 -101 54 -115 34 -18 23
-54 -17 -58 -39 -4 -43 -19 -8 -28 16 -4 34 0 50 10 15 10 26 12 30 6 8 -13
65 -13 65 0 0 6 -11 10 -24 10 -45 0 -39 21 23 78 84 79 81 100 -17 121 -61
13 -98 13 -128 1z m168 -38 c12 -12 -35 -68 -72 -87 -23 -12 -30 -12 -49 1
-27 20 -54 71 -46 91 4 13 18 15 82 10 41 -3 80 -10 85 -15z"/>
<path d="M9694 19050 c-12 -4 -24 -16 -28 -25 -9 -23 27 -101 54 -115 34 -18
23 -54 -17 -58 -39 -4 -43 -19 -8 -28 16 -4 34 0 50 10 15 10 26 12 30 6 8
-13 65 -13 65 0 0 6 -11 10 -24 10 -45 0 -39 21 23 78 84 79 81 100 -17 121
-61 13 -98 13 -128 1z m168 -38 c12 -12 -35 -68 -72 -87 -23 -12 -30 -12 -49
1 -27 20 -54 71 -46 91 4 13 18 15 82 10 41 -3 80 -10 85 -15z"/>
<path d="M0 19010 c0 -5 5 -10 10 -10 6 0 10 5 10 10 0 6 -4 10 -10 10 -5 0
-10 -4 -10 -10z"/>
<path d="M9600 19010 c0 -5 5 -10 10 -10 6 0 10 5 10 10 0 6 -4 10 -10 10 -5
0 -10 -4 -10 -10z"/>
<path d="M9610 18964 c0 -8 5 -12 10 -9 6 4 8 11 5 16 -9 14 -15 11 -15 -7z"/>
<path d="M10 18959 c0 -5 5 -7 10 -4 6 3 10 8 10 11 0 2 -4 4 -10 4 -5 0 -10
-5 -10 -11z"/>
<path d="M320 18956 c0 -9 5 -16 10 -16 6 0 10 4 10 9 0 6 -4 13 -10 16 -5 3
-10 -1 -10 -9z"/>
<path d="M9920 18956 c0 -9 5 -16 10 -16 6 0 10 4 10 9 0 6 -4 13 -10 16 -5 3
-10 -1 -10 -9z"/>
<path d="M1483 18394 c-47 -23 -57 -58 -49 -173 5 -74 4 -100 -6 -108 -7 -6
-43 -18 -81 -28 -97 -26 -102 -31 -100 -108 0 -36 6 -75 13 -87 11 -21 17 -22
82 -18 104 8 106 5 124 -170 8 -82 21 -158 30 -177 14 -30 23 -35 71 -45 70
-15 118 1 150 49 28 41 30 119 9 251 -9 53 -11 91 -5 102 5 9 46 31 91 48 119
45 128 53 128 101 0 105 -48 143 -174 137 l-81 -3 -20 95 c-11 52 -25 102 -30
111 -25 40 -96 51 -152 23z m124 -26 c6 -7 16 -44 22 -83 19 -108 20 -113 37
-130 13 -13 29 -14 88 -9 88 8 130 -9 152 -61 30 -73 19 -86 -109 -135 -54
-20 -92 -41 -99 -53 -8 -15 -7 -44 3 -106 8 -47 14 -119 14 -159 0 -71 -1 -75
-34 -104 -30 -27 -39 -30 -83 -26 -85 9 -90 18 -112 225 -9 81 -19 131 -31
149 -16 26 -20 26 -81 21 -75 -7 -98 7 -109 67 -12 62 -3 71 98 97 l92 24 3
130 c2 118 4 132 23 148 25 20 111 24 126 5z"/>
<path d="M7454 18259 c-3 -6 -17 -8 -30 -5 -16 4 -30 0 -43 -13 -12 -12 -27
-17 -40 -14 -42 11 -75 -119 -51 -207 9 -34 26 -58 71 -99 l59 -54 0 -189 c0
-103 -4 -188 -9 -188 -17 0 -29 26 -36 77 -10 79 -97 214 -121 190 -4 -4 3
-18 16 -32 21 -22 25 -39 30 -128 8 -116 24 -161 69 -200 38 -32 74 -34 117
-8 41 25 60 71 68 163 8 96 28 163 57 194 34 37 16 39 -34 6 -61 -43 -78 -73
-88 -160 -9 -85 -31 -127 -24 -46 3 27 9 102 15 166 6 64 13 124 16 132 3 8
25 27 49 40 59 35 86 82 92 161 8 95 -3 154 -31 165 -13 5 -26 16 -30 25 -4
12 -14 16 -31 13 -14 -3 -30 1 -36 8 -14 17 -45 18 -55 3z m56 -63 c17 -37 18
-51 10 -102 -6 -33 -16 -70 -22 -84 -29 -66 -63 -519 -40 -534 19 -12 42 24
42 67 0 54 15 104 41 142 12 17 18 21 14 10 -4 -11 -13 -68 -21 -128 -15 -116
-19 -130 -57 -165 -70 -66 -158 45 -157 197 1 52 2 54 14 31 7 -14 16 -47 20
-74 7 -53 28 -86 56 -86 15 0 18 20 24 173 3 94 13 199 20 231 15 64 12 78
-29 135 -14 19 -25 48 -25 66 0 62 48 165 77 165 8 0 23 -20 33 -44z m-104
-11 c-7 -38 -26 -39 -26 -1 0 21 19 50 28 41 2 -2 1 -20 -2 -40z m160 24 c10
-17 -13 -36 -27 -22 -12 12 -4 33 11 33 5 0 12 -5 16 -11z m-212 -27 c8 -15
19 -61 25 -101 7 -57 16 -80 35 -100 25 -26 37 -91 18 -91 -5 0 -29 25 -56 55
-48 56 -76 109 -76 144 0 19 30 121 36 121 2 0 10 -13 18 -28z m260 -18 c10
-25 7 -125 -4 -166 -10 -35 -80 -108 -103 -108 -11 0 -4 62 11 105 6 17 15 57
21 89 14 78 58 125 75 80z"/>
<path d="M16864 18076 c-5 -13 -14 -15 -35 -11 -24 6 -31 2 -40 -19 -7 -15
-21 -26 -31 -26 -13 0 -20 -10 -25 -30 -4 -21 -11 -29 -22 -28 -13 3 -16 -7
-16 -53 0 -45 6 -66 30 -105 39 -63 80 -89 157 -103 39 -6 68 -17 76 -28 23
-31 181 -317 177 -321 -11 -11 -45 13 -72 51 -36 52 -174 130 -193 111 -9 -9
-2 -16 27 -30 28 -14 53 -42 93 -102 60 -91 112 -132 168 -132 98 0 130 97 72
218 -43 91 -61 159 -54 203 9 54 -2 49 -31 -13 -32 -69 -31 -95 5 -178 30 -68
39 -103 21 -84 -15 15 -141 293 -141 309 0 9 12 39 26 67 41 81 27 150 -53
260 -27 37 -40 47 -61 46 -15 0 -37 3 -49 7 -17 5 -24 3 -29 -9z m47 -29 c-1
-4 -1 -15 -1 -24 0 -16 -1 -16 -16 -1 -9 9 -13 21 -9 28 7 12 27 10 26 -3z
m97 -57 c59 -99 64 -163 18 -225 -15 -20 -15 -20 -30 0 -8 11 -16 35 -16 53 0
18 -11 59 -25 92 -25 60 -30 94 -19 125 11 28 38 11 72 -45z m-141 28 c35 -24
83 -125 83 -173 0 -56 201 -475 228 -475 25 0 25 33 -1 86 -21 41 -27 68 -26
112 1 50 2 53 8 22 4 -19 24 -72 44 -116 20 -45 37 -93 37 -107 0 -91 -39
-124 -111 -92 -42 19 -110 88 -142 144 -28 49 -5 37 55 -29 41 -45 62 -60 81
-60 38 0 35 27 -12 108 -57 98 -116 220 -135 278 -18 56 -37 77 -76 89 -55 16
-86 64 -96 149 -11 89 4 104 63 64z m-82 -70 c5 -18 3 -28 -4 -28 -15 0 -34
39 -26 57 7 21 21 7 30 -29z m-34 -30 c16 -12 41 -42 55 -66 20 -34 38 -49 79
-68 49 -21 85 -57 71 -71 -3 -3 -38 5 -78 17 -105 32 -168 103 -168 193 0 22
5 22 41 -5z"/>
<path d="M12266 17939 c-17 -11 -96 -164 -96 -187 0 -23 -33 -29 -94 -16 -122
26 -133 21 -170 -78 -24 -62 -16 -82 42 -103 67 -25 92 -43 92 -66 0 -11 -22
-78 -50 -149 -30 -77 -50 -145 -50 -169 0 -36 5 -43 49 -75 36 -27 59 -36 87
-36 83 0 128 55 178 222 27 86 45 118 69 118 7 0 52 -5 101 -10 49 -6 97 -8
106 -5 26 8 50 66 50 118 0 59 -35 95 -114 120 -31 10 -59 24 -62 32 -3 7 6
55 21 108 29 109 25 135 -27 167 -36 22 -102 26 -132 9z m112 -29 c18 -11 35
-27 38 -35 4 -9 -6 -54 -20 -101 -15 -47 -26 -95 -24 -107 2 -16 23 -31 77
-57 40 -20 82 -46 92 -59 23 -28 24 -72 3 -112 l-15 -31 -119 7 c-138 9 -132
13 -175 -118 -34 -105 -70 -173 -101 -194 -56 -36 -130 -12 -160 51 -16 31
-15 36 35 168 28 75 51 152 51 172 0 39 -17 55 -83 76 -53 17 -65 46 -42 105
9 26 23 49 29 51 7 3 49 -4 95 -15 45 -11 89 -17 97 -14 8 3 35 49 60 102 25
53 53 104 61 114 21 23 60 22 101 -3z"/>
<path d="M4590 17376 c-121 -45 -277 -212 -314 -337 -22 -73 -30 -200 -16
-243 25 -77 123 -154 179 -141 17 4 32 2 36 -5 16 -26 186 -130 213 -130 58 0
172 99 252 218 52 77 83 161 95 255 l7 58 -72 67 c-39 37 -96 83 -125 103 -51
33 -53 37 -38 52 25 25 6 67 -42 94 -46 26 -119 29 -175 9z m170 -35 c25 -18
40 -61 21 -61 -15 0 -37 -48 -44 -94 -4 -22 -20 -57 -37 -78 -39 -49 -50 -85
-50 -170 0 -80 -20 -108 -80 -108 -20 0 -59 -12 -88 -26 -55 -27 -70 -52 -58
-99 10 -39 -21 -32 -78 17 -69 60 -79 87 -66 200 8 72 18 109 45 164 59 121
198 250 298 275 44 11 107 2 137 -20z m103 -165 c96 -73 133 -106 147 -134 19
-38 5 -36 -53 7 -51 39 -78 50 -77 34 1 -5 30 -28 65 -53 36 -25 65 -52 65
-61 0 -22 -30 -122 -40 -133 -5 -5 -27 7 -51 28 -23 20 -46 36 -51 36 -19 0
-5 -21 38 -58 52 -44 52 -54 5 -112 l-29 -35 -24 23 c-39 36 -56 26 -19 -12
l32 -33 -42 -37 c-35 -30 -45 -34 -58 -23 -9 6 -37 29 -63 50 -71 59 -80 39
-10 -23 34 -29 62 -57 62 -61 0 -16 -61 -40 -83 -33 -35 10 -185 114 -213 147
-14 16 -24 37 -22 46 5 24 80 61 138 68 40 5 56 12 75 35 22 26 25 39 25 111
0 78 2 85 40 147 22 36 40 73 40 82 0 24 11 48 22 48 5 0 41 -24 81 -54z"/>
<path d="M4668 17329 c-22 -12 -23 -38 -4 -45 20 -8 76 23 76 41 0 17 -45 20
-72 4z m38 -14 c-11 -8 -22 -12 -25 -9 -6 6 19 24 34 24 6 -1 1 -7 -9 -15z"/>
<path d="M4570 17200 c-12 -7 -12 -13 -4 -27 17 -28 49 -23 49 7 0 27 -21 36
-45 20z"/>
<path d="M4484 17075 c-7 -18 3 -35 21 -35 15 0 28 27 19 41 -8 14 -34 11 -40
-6z"/>
<path d="M4356 16951 c-20 -22 -21 -64 -2 -80 18 -15 36 13 36 58 0 37 -12 46
-34 22z"/>
<path d="M4550 16955 c-17 -20 -5 -45 20 -45 11 0 23 7 26 15 6 15 -11 45 -26
45 -4 0 -13 -7 -20 -15z m30 -15 c0 -5 -5 -10 -11 -10 -5 0 -7 5 -4 10 3 6 8
10 11 10 2 0 4 -4 4 -10z"/>
<path d="M14921 16579 c-69 -15 -151 -105 -151 -165 0 -27 -15 -55 -69 -127
-37 -50 -71 -100 -74 -110 -24 -67 151 -259 299 -329 71 -33 184 -59 218 -50
26 8 161 149 192 200 19 33 29 39 39 22 3 -5 19 -10 35 -10 22 0 36 9 57 37
25 32 28 45 28 107 0 62 -5 79 -35 136 -41 75 -144 181 -221 227 -83 50 -238
80 -318 62z m160 -29 c91 -17 175 -65 259 -149 90 -91 133 -169 133 -246 0
-96 -52 -151 -97 -102 -14 15 -41 29 -62 33 -47 8 -68 18 -117 58 -34 27 -47
31 -128 36 -108 6 -129 22 -129 97 0 45 -26 109 -54 132 -9 8 -31 11 -51 9
-52 -6 -46 21 18 87 53 55 53 55 114 55 33 0 85 -5 114 -10z m-207 -169 c24
-26 45 -88 46 -132 0 -58 38 -89 109 -89 82 -1 123 -13 192 -59 34 -22 72 -41
85 -41 12 0 25 -4 28 -9 6 -9 -67 -109 -131 -178 -35 -37 -93 -73 -93 -56 0 3
18 30 41 59 22 29 39 59 37 66 -3 7 -28 -18 -57 -55 -29 -37 -55 -67 -59 -67
-21 0 -142 46 -142 54 0 6 16 27 36 47 20 21 34 43 32 51 -4 8 -20 -3 -48 -34
-24 -27 -47 -48 -52 -48 -19 0 -88 54 -88 68 0 9 10 26 22 39 31 34 16 38 -22
6 l-33 -27 -33 37 c-19 20 -34 41 -34 46 0 5 23 34 51 65 28 31 49 61 47 68
-3 7 -27 -12 -58 -45 -29 -31 -58 -57 -65 -57 -18 0 -38 55 -30 82 10 32 120
183 152 208 32 25 45 25 67 1z"/>
<path d="M15003 16490 c-23 -9 -30 -25 -15 -33 4 -3 26 -8 50 -12 38 -6 42 -5
42 14 0 14 -9 25 -26 31 -14 6 -26 10 -27 9 -1 0 -12 -4 -24 -9z m44 -26 c-3
-3 -12 -4 -19 -1 -8 3 -5 6 6 6 11 1 17 -2 13 -5z"/>
<path d="M15160 16330 c0 -23 26 -38 41 -23 14 14 0 43 -22 43 -12 0 -19 -7
-19 -20z"/>
<path d="M15024 16275 c-4 -9 -2 -21 4 -27 16 -16 47 -5 47 17 0 26 -42 34
-51 10z"/>
<path d="M15275 16256 c-25 -18 -13 -46 20 -46 18 0 25 5 25 19 0 29 -23 43
-45 27z"/>
<path d="M15394 16156 c-8 -20 18 -71 36 -71 19 0 25 37 10 64 -12 24 -38 28
-46 7z m40 -32 c10 -25 -1 -29 -14 -5 -6 12 -7 21 -1 21 5 0 12 -7 15 -16z"/>
<path d="M2598 16534 c-4 -4 -5 -24 -2 -45 6 -34 4 -40 -20 -50 -34 -16 -33
-27 2 -31 23 -3 27 -8 30 -41 3 -32 -2 -42 -31 -70 -49 -46 -59 -94 -58 -277
1 -184 6 -172 -129 -330 -157 -185 -162 -200 -56 -200 36 0 68 -5 71 -10 8
-13 31 -362 41 -612 6 -175 13 -222 30 -206 8 8 -11 449 -28 648 -17 203 -19
185 24 182 21 -2 120 7 220 19 264 32 243 35 244 -31 1 -54 26 -423 44 -650 5
-63 10 -121 10 -128 0 -7 5 -10 11 -6 12 7 10 68 -10 314 -25 304 -33 429 -30
479 4 51 6 55 34 63 17 4 58 9 92 10 44 2 60 6 55 14 -22 39 -120 129 -201
184 -51 35 -100 74 -108 86 -8 13 -23 83 -34 156 -29 209 -60 288 -126 317
-26 11 -33 22 -39 54 -5 35 -3 43 17 58 l24 19 -23 0 c-12 0 -24 6 -26 13 -2
6 -8 27 -12 45 -5 19 -12 30 -16 26z m67 -248 c40 -17 68 -65 84 -146 9 -46
41 -280 41 -300 0 -4 49 -39 108 -78 108 -72 165 -119 182 -153 11 -19 -1 -21
-235 -34 -55 -3 -113 -10 -130 -15 -41 -12 -307 -40 -378 -40 l-59 0 43 53
c23 28 82 93 131 143 l89 91 5 187 c4 203 14 257 52 287 29 23 25 22 67 5z"/>
<path d="M2609 16124 c-7 -9 -15 -42 -17 -73 -5 -73 13 -96 67 -86 52 10 54
13 48 73 -9 81 -62 129 -98 86z m59 -26 c11 -14 15 -38 13 -80 -1 -24 -5 -28
-30 -28 -31 0 -41 14 -41 56 0 52 34 81 58 52z"/>
<path d="M9973 16315 c-110 -30 -224 -104 -340 -222 -45 -46 -86 -98 -92 -116
-6 -18 -24 -39 -40 -49 -16 -9 -37 -29 -47 -45 -10 -15 -35 -47 -55 -69 -65
-73 -79 -175 -31 -224 69 -69 182 -63 342 16 78 39 111 63 193 143 108 104
202 234 236 325 40 107 21 209 -44 240 -39 19 -54 19 -122 1z m102 -25 c37
-14 59 -71 52 -141 -9 -100 -85 -223 -228 -369 -95 -97 -157 -139 -279 -187
-98 -39 -208 -25 -245 31 -15 22 -16 32 -5 78 7 29 16 60 21 70 15 27 70 55
153 77 43 11 83 24 89 30 16 16 -17 14 -102 -8 l-73 -20 28 31 c28 29 199 118
228 118 19 0 30 17 16 25 -5 3 -46 -10 -90 -29 -44 -19 -80 -31 -80 -26 0 5
24 33 53 62 50 52 77 66 186 100 55 16 69 41 19 32 -18 -4 -52 -15 -75 -25
-69 -29 -49 -3 41 57 94 60 139 82 200 94 58 11 62 11 91 0z"/>
<path d="M13184 16153 c-10 -49 -13 -53 -38 -53 -35 0 -42 -18 -11 -26 23 -6
26 -11 23 -48 -3 -38 -6 -42 -50 -63 -69 -33 -88 -70 -163 -325 l-26 -88 -72
-48 c-40 -27 -106 -69 -147 -95 -81 -50 -136 -100 -126 -115 3 -5 27 -15 53
-22 60 -16 73 -26 73 -57 0 -13 -43 -193 -95 -400 -52 -206 -95 -377 -95 -379
0 -14 19 0 28 22 14 30 129 482 162 634 12 58 26 115 31 128 8 21 10 22 43 8
29 -12 266 -59 410 -81 35 -6 38 -8 33 -33 -8 -38 -54 -232 -126 -536 -69
-292 -64 -266 -52 -266 15 0 29 49 65 215 98 452 134 595 153 602 17 7 144
-17 161 -30 53 -41 -32 136 -115 237 -97 119 -98 122 -72 269 14 84 19 153 17
220 -3 96 -4 98 -36 128 -30 28 -33 36 -27 68 9 47 12 51 38 51 l22 0 -23 18
c-20 16 -23 24 -17 55 8 44 -11 53 -21 10z m6 -231 c49 -50 50 -100 4 -360
-12 -68 -15 -107 -9 -116 6 -8 45 -57 89 -111 72 -89 125 -179 113 -192 -7 -6
-121 19 -242 52 -49 14 -104 25 -120 25 -62 0 -425 77 -425 90 0 9 171 116
246 153 38 19 75 41 80 49 12 15 50 123 88 248 36 121 83 187 134 189 8 1 26
-12 42 -27z m-123 -728 c-3 -3 -12 -4 -19 -1 -8 3 -5 6 6 6 11 1 17 -2 13 -5z"/>
<path d="M13080 15780 c-26 -26 -40 -62 -40 -104 0 -42 16 -56 62 -56 34 0 38
3 47 38 17 58 13 100 -9 122 -25 25 -35 25 -60 0z m53 -31 c10 -16 3 -74 -12
-97 -5 -9 -17 -11 -34 -6 -34 8 -36 44 -7 92 21 34 36 37 53 11z"/>
<path d="M17222 15935 c-52 -58 -54 -130 -6 -231 50 -106 29 -170 -102 -309
-18 -19 -34 -39 -36 -47 -4 -9 -10 -7 -24 10 -14 17 -34 24 -79 28 -52 5 -64
3 -95 -18 -32 -22 -35 -28 -38 -79 -2 -45 1 -59 17 -73 11 -10 17 -25 14 -34
-6 -13 1 -14 46 -9 29 4 69 16 88 27 20 11 36 20 37 18 3 -5 66 -264 66 -272
0 -3 -27 -6 -59 -6 -62 0 -110 -13 -123 -33 -4 -7 -8 -37 -8 -68 0 -60 18 -89
57 -89 38 0 113 32 133 57 12 15 20 20 20 12 0 -37 -24 -219 -29 -219 -3 1
-15 15 -26 32 -59 91 -222 89 -254 -4 -21 -58 -15 -75 36 -105 37 -22 64 -29
127 -33 l79 -5 -53 -64 c-41 -49 -67 -70 -112 -90 -57 -25 -80 -49 -35 -37 12
3 30 6 39 6 10 0 34 14 53 32 35 30 38 31 63 16 56 -32 193 -48 245 -29 21 8
25 18 31 69 8 72 3 87 -35 102 -48 20 -132 -4 -188 -54 -13 -11 -22 -16 -19
-11 2 6 21 45 41 87 20 42 42 99 48 127 6 28 11 51 12 51 1 0 20 -7 42 -15 82
-29 169 -15 242 41 28 21 33 31 33 68 0 52 -25 88 -81 116 -65 34 -83 28 -165
-52 l-74 -71 -2 71 c-1 40 -2 82 -2 94 -1 19 5 23 37 26 50 3 88 23 121 62 32
39 33 67 3 111 -22 31 -27 34 -71 32 -59 -2 -92 -29 -101 -82 -3 -20 -10 -42
-14 -50 -13 -21 -41 110 -41 192 0 61 4 79 22 102 19 25 26 27 69 22 54 -7
162 7 197 25 12 6 22 18 22 27 0 8 7 35 16 58 15 39 15 44 0 68 -21 32 -65 33
-113 4 -19 -12 -36 -19 -39 -16 -3 2 3 35 12 73 13 53 24 75 47 93 42 35 77
115 77 179 0 71 -29 102 -94 102 -38 0 -48 -5 -74 -35z m136 -12 c6 -9 12 -32
12 -50 0 -40 -35 -137 -57 -154 -14 -12 -15 -10 -9 18 6 26 4 32 -14 38 -24 8
-50 -10 -50 -34 0 -14 -2 -14 -10 -1 -43 65 -27 163 30 193 39 19 78 15 98
-10z m-78 -197 c0 -14 -4 -28 -10 -31 -6 -4 -10 7 -10 24 0 17 5 31 10 31 6 0
10 -11 10 -24z m91 -196 c26 -15 24 -43 -8 -80 -20 -24 -23 -34 -14 -40 23
-14 -6 -22 -97 -27 -94 -6 -102 1 -25 21 39 10 49 17 51 36 2 14 -3 29 -13 36
-15 11 -11 16 32 38 57 30 50 28 74 16z m-131 -94 c-8 -8 -26 -17 -40 -20
l-25 -7 24 20 c27 25 66 31 41 7z m-237 -81 c49 -20 55 -35 15 -35 -40 0 -58
-15 -58 -47 0 -17 8 -25 33 -31 l32 -9 -39 -16 c-53 -23 -83 -21 -100 6 -47
74 -17 135 70 146 6 0 28 -6 47 -14z m35 -72 c5 -17 -26 -29 -40 -15 -6 6 -7
15 -3 22 9 14 37 9 43 -7z m241 -147 c16 -19 17 -66 2 -94 -6 -12 -26 -29 -43
-38 l-31 -16 7 37 c9 46 -7 70 -36 54 -11 -6 -22 -8 -25 -6 -10 10 31 66 51
70 43 9 64 7 75 -7z m-93 -120 c-9 -15 -21 -26 -26 -26 -19 0 -19 19 1 45 28
35 50 18 25 -19z m-81 -101 c-5 -2 -22 -6 -37 -9 -52 -12 -44 -76 10 -76 17 0
23 -3 16 -10 -16 -16 -127 -51 -135 -43 -4 5 -10 31 -14 59 -7 58 -3 63 55 75
35 7 124 10 105 4z m264 -35 c44 -22 81 -64 81 -90 0 -29 -37 -66 -88 -88 -38
-17 -60 -20 -105 -15 -31 3 -57 10 -57 14 0 5 8 9 18 9 41 0 55 42 21 61 -18
9 -27 7 -50 -10 -45 -33 -46 -25 -4 20 39 40 132 119 141 119 3 0 22 -9 43
-20z m-259 -4 c0 -18 -30 -30 -43 -17 -5 5 -6 14 -3 20 10 16 46 13 46 -3z
m120 -135 c0 -9 -24 -21 -41 -21 -16 0 -10 18 9 23 28 8 32 7 32 -2z m-237
-72 c28 -15 87 -70 87 -82 0 -5 -7 -4 -15 3 -33 28 -96 -23 -66 -53 35 -35
-33 -37 -106 -2 -56 26 -60 33 -42 85 18 49 91 75 142 49z m75 -121 c3 -13 -3
-18 -22 -18 -20 0 -26 5 -26 21 0 15 5 20 22 17 13 -2 24 -11 26 -20z m193
-88 c23 -13 24 -26 4 -63 -8 -15 -12 -34 -9 -41 3 -9 -3 -17 -16 -21 -31 -10
-160 5 -193 22 -38 19 -30 25 15 11 46 -14 68 -5 68 26 0 16 -7 26 -22 30 -21
6 -18 9 22 26 51 21 102 25 131 10z m-156 -70 c-3 -5 -12 -10 -20 -10 -8 0
-17 5 -20 10 -4 6 5 10 20 10 15 0 24 -4 20 -10z"/>
<path d="M5949 15621 c-36 -37 -38 -84 -6 -132 39 -58 77 -71 191 -65 91 5
102 3 147 -20 36 -18 59 -39 84 -79 19 -29 39 -56 45 -60 5 -3 10 -14 10 -24
0 -10 9 -26 20 -36 24 -22 26 -35 5 -35 -22 0 -75 -89 -75 -126 0 -51 38 -97
89 -108 31 -7 49 -6 63 3 15 9 23 9 33 1 11 -9 15 -2 21 35 3 26 4 69 1 97
l-6 50 37 -6 c20 -3 84 -8 140 -12 100 -6 104 -7 97 -28 -41 -141 -31 -173 58
-195 53 -12 59 -12 77 4 26 23 29 138 4 173 -8 12 -11 22 -5 22 5 0 54 -21
108 -46 l98 -46 -35 -12 c-79 -25 -120 -78 -120 -153 0 -47 4 -59 29 -83 16
-16 41 -32 56 -36 25 -6 34 -1 76 43 31 32 51 65 59 94 23 86 22 85 66 17 48
-74 64 -116 64 -169 0 -22 4 -39 9 -39 17 0 19 66 3 118 -15 50 -15 53 5 71
33 31 85 130 94 178 9 48 -2 83 -26 83 -8 0 -29 9 -47 20 -43 25 -75 11 -102
-44 -17 -34 -18 -47 -9 -95 5 -31 13 -65 17 -76 7 -19 7 -18 -11 2 -31 37
-126 114 -165 134 l-37 19 30 47 c44 70 53 114 39 190 -15 78 -41 103 -108
103 -39 0 -50 -5 -88 -44 -57 -56 -57 -85 -4 -185 22 -41 38 -77 36 -79 -3 -2
-13 1 -23 7 -11 5 -50 15 -87 22 -56 9 -66 14 -61 28 24 61 13 129 -30 175
-28 30 -70 34 -115 11 -23 -12 -30 -24 -35 -59 -9 -56 4 -79 63 -117 l47 -30
-85 5 c-86 5 -172 27 -202 53 -28 25 -31 61 -8 109 13 26 24 73 27 118 5 68 4
76 -13 82 -10 4 -34 20 -52 36 -41 35 -76 36 -99 2 -14 -22 -15 -34 -6 -77 6
-29 10 -53 8 -55 -2 -3 -109 61 -130 78 -8 7 -15 21 -15 31 0 47 -127 139
-193 139 -18 0 -39 -10 -58 -29z m124 -13 c27 -14 97 -79 97 -90 0 -5 -10 -3
-22 3 -18 10 -24 8 -35 -7 -17 -23 -17 -41 2 -48 28 -10 15 -26 -20 -26 -80 0
-145 49 -145 110 0 72 51 96 123 58z m369 -113 c13 -19 29 -33 36 -30 15 5 16
-41 1 -105 -16 -75 -23 -78 -29 -15 -4 53 -8 60 -28 63 -13 2 -29 -1 -36 -7
-11 -9 -15 -4 -20 20 -8 41 -8 94 1 102 18 19 54 5 75 -28z m-276 -9 c10 -8
16 -17 12 -21 -8 -8 -48 13 -48 25 0 14 13 12 36 -4z m262 -147 c4 -40 -13
-30 -24 15 -5 22 -4 28 7 24 8 -2 15 -20 17 -39z m697 19 c39 -35 45 -125 14
-198 l-24 -55 -5 35 c-4 29 -9 35 -30 35 -20 0 -26 -6 -28 -27 -2 -15 2 -36 8
-48 8 -14 8 -20 0 -20 -12 0 -100 180 -100 204 0 23 87 96 114 96 14 0 36 -10
51 -22z m-322 -63 c29 -30 43 -90 18 -79 -9 4 -31 9 -50 12 -34 5 -34 4 -27
-29 l6 -33 -31 29 c-27 27 -30 34 -24 70 3 22 11 43 18 47 24 15 65 8 90 -17z
m5 -97 c13 -13 17 -48 5 -48 -12 0 -43 33 -43 47 0 16 22 17 38 1z m-336 -60
c-7 -7 -12 -24 -12 -38 0 -49 46 -68 73 -30 19 27 27 15 27 -36 0 -33 -5 -46
-22 -58 -37 -26 -108 -16 -130 18 -26 38 19 156 59 156 13 0 14 -3 5 -12z
m618 -8 c0 -11 -4 -20 -10 -20 -5 0 -10 9 -10 20 0 11 5 20 10 20 6 0 10 -9
10 -20z m-570 -19 c0 -11 -5 -23 -11 -27 -15 -9 -33 12 -26 30 9 23 37 20 37
-3z m895 -21 c10 -11 26 -20 37 -20 14 0 18 -8 18 -32 0 -36 -68 -180 -87
-186 -7 -2 -3 14 10 36 18 34 19 42 8 56 -17 20 -40 21 -47 1 -13 -32 -24 -13
-24 40 0 104 41 154 85 105z m-538 -27 c-11 -59 35 -84 71 -38 l19 24 6 -59
c9 -83 4 -93 -47 -85 -82 13 -79 9 -72 85 6 68 14 100 23 100 3 0 3 -12 0 -27z
m51 -8 c-2 -14 -7 -26 -13 -26 -5 0 -11 12 -13 26 -2 18 1 25 13 25 12 0 15
-7 13 -25z m254 -101 c-41 -28 -19 -93 28 -81 30 8 26 -32 -8 -79 -47 -65 -57
-70 -98 -51 -85 41 -62 162 40 208 50 23 68 24 38 3z m51 -35 c-7 -25 -32 -37
-43 -19 -13 20 0 40 25 40 19 0 22 -4 18 -21z m157 3 c0 -5 -7 -17 -15 -28
-14 -19 -14 -19 -15 2 0 11 3 24 7 27 9 10 23 9 23 -1z"/>
<path d="M284 15570 c-107 -35 -284 -162 -284 -205 l0 -23 58 24 c31 13 67 24
78 24 12 0 32 9 45 20 l24 19 -27 1 c-15 0 -51 -9 -79 -20 -28 -12 -54 -19
-56 -16 -8 8 90 74 173 117 62 32 96 42 147 46 l66 6 20 -34 c32 -52 29 -138
-8 -216 -71 -150 -225 -321 -358 -398 -46 -26 -83 -52 -83 -56 0 -36 140 51
243 150 99 96 182 206 228 306 28 59 31 73 27 140 -3 65 -7 78 -30 101 -35 36
-102 41 -184 14z"/>
<path d="M2832 15471 c-21 -13 -29 -63 -19 -111 12 -57 23 -70 57 -70 16 0 30
6 33 13 6 17 -4 119 -15 139 -11 23 -41 38 -56 29z m38 -57 c15 -39 13 -94 -5
-94 -14 0 -35 56 -35 98 0 31 28 28 40 -4z"/>
<path d="M2502 15407 c-25 -27 -30 -92 -9 -122 11 -14 21 -16 52 -11 l38 7 -7
61 c-9 89 -32 109 -74 65z m46 -60 c3 -41 1 -47 -17 -47 -13 0 -21 9 -26 30
-9 39 2 72 23 68 13 -2 18 -16 20 -51z"/>
<path d="M19141 15321 c-28 -29 -54 -64 -57 -77 -3 -13 -26 -39 -50 -59 -24
-20 -44 -42 -44 -49 0 -6 -18 -30 -40 -51 -65 -63 -88 -169 -49 -219 31 -40
75 -58 140 -58 66 0 159 27 159 46 0 10 -17 8 -68 -7 -105 -31 -198 -7 -221
56 -9 24 12 121 30 143 19 23 77 50 139 64 76 18 102 28 96 39 -4 5 -38 1 -78
-10 -40 -10 -77 -19 -82 -19 -25 0 55 63 116 91 37 18 68 39 68 46 0 10 -10 8
-41 -7 -22 -12 -45 -20 -50 -18 -5 2 13 29 41 61 68 75 59 100 -9 28z"/>
<path d="M22 15280 c-12 -5 -22 -14 -22 -21 0 -6 7 -8 16 -5 9 3 27 9 40 12
13 3 24 10 24 15 0 11 -28 11 -58 -1z"/>
<path d="M2660 15249 c-44 -18 -80 -62 -98 -119 -13 -43 -17 -92 -17 -222 0
-155 2 -169 21 -188 18 -19 26 -20 90 -10 38 5 96 10 130 10 89 0 98 13 90
132 -16 222 -26 281 -51 318 -45 64 -117 99 -165 79z m121 -65 c22 -21 44 -54
50 -74 6 -19 13 -105 16 -190 5 -138 4 -157 -11 -169 -22 -19 -232 -37 -250
-22 -18 15 -28 236 -16 324 24 168 115 224 211 131z"/>
<path d="M2646 15160 c-19 -17 -39 -45 -45 -63 -16 -52 -24 -171 -16 -247 8
-85 11 -86 151 -75 l96 7 -7 152 c-8 169 -18 204 -70 236 -44 27 -68 25 -109
-10z m101 -12 c42 -29 50 -58 58 -219 l6 -126 -79 -6 c-127 -10 -122 -15 -122
122 1 145 10 188 50 224 37 33 45 33 87 5z"/>
<path d="M2761 14978 c-1 -20 4 -40 9 -43 12 -7 12 32 0 60 -7 16 -9 13 -9
-17z"/>
<path d="M12768 15135 c-28 -16 -36 -31 -38 -80 -3 -49 -1 -52 31 -59 42 -8
56 6 65 62 9 54 7 74 -9 84 -16 10 -17 10 -49 -7z m36 -23 c10 -16 -7 -84 -21
-89 -27 -11 -37 13 -24 57 11 37 32 52 45 32z"/>
<path d="M13082 15075 c-21 -27 -37 -104 -27 -134 6 -19 48 -36 65 -26 5 3 14
22 20 43 29 105 -8 180 -58 117z m46 -33 c5 -32 -17 -104 -31 -99 -13 4 -16
80 -4 110 9 24 31 17 35 -11z"/>
<path d="M12825 14922 c-69 -32 -110 -107 -171 -314 -35 -119 -36 -128 -21
-151 11 -18 28 -26 64 -31 26 -3 86 -16 132 -27 81 -20 84 -20 101 -2 20 20
90 305 90 367 0 40 -36 121 -68 149 -30 27 -81 30 -127 9z m104 -28 c36 -30
71 -100 71 -141 0 -31 -42 -211 -66 -286 -9 -26 -23 -51 -33 -56 -16 -9 -213
27 -240 43 -6 4 -11 19 -11 33 0 35 66 255 91 304 38 75 91 120 151 128 3 1
20 -11 37 -25z"/>
<path d="M12819 14847 c-43 -29 -81 -99 -113 -211 -35 -119 -34 -129 12 -149
31 -14 120 -35 172 -40 11 -2 24 34 53 143 42 161 42 194 2 246 -32 42 -75 45
-126 11z m110 -34 c17 -21 31 -44 31 -53 0 -23 -62 -274 -70 -283 -8 -9 -154
22 -176 38 -14 10 -14 19 6 91 34 122 78 206 120 226 48 25 54 23 89 -19z"/>
<path d="M12890 14634 c0 -21 4 -33 10 -29 6 3 10 19 10 36 0 16 -4 29 -10 29
-5 0 -10 -16 -10 -36z"/>
<path d="M5208 13770 c-127 -32 -288 -156 -302 -234 -4 -21 -12 -49 -18 -62
-12 -27 -174 -161 -226 -188 -61 -31 -65 -64 -22 -174 53 -137 175 -260 347
-348 119 -61 181 -43 281 81 22 28 72 83 110 124 64 68 72 73 101 68 26 -6 33
-2 48 21 9 15 43 55 75 90 69 75 105 141 123 230 16 77 8 128 -33 212 -21 43
-40 64 -89 96 -93 63 -162 87 -268 90 -49 2 -107 -1 -127 -6z m237 -35 c115
-30 222 -122 249 -216 9 -29 16 -62 16 -74 0 -43 -39 -167 -64 -203 -41 -60
-124 -148 -132 -140 -3 4 18 34 48 67 63 67 90 118 113 209 33 127 -29 245
-165 318 -30 16 -56 19 -170 18 -163 -1 -217 -18 -305 -95 -31 -27 -60 -48
-62 -45 -13 12 61 86 115 114 110 59 243 76 357 47z m52 -60 c61 -26 102 -66
134 -131 55 -110 34 -212 -69 -339 -49 -61 -66 -72 -91 -56 -11 7 -9 14 9 40
15 20 25 49 28 85 4 49 2 57 -23 81 -23 24 -32 26 -66 21 -37 -6 -39 -5 -39
20 0 61 -50 95 -102 69 -39 -19 -52 -11 -32 20 22 34 11 71 -29 96 -45 28
-106 21 -157 -20 -21 -17 -42 -27 -45 -21 -17 27 74 105 150 130 95 31 263 34
332 5z m-282 -125 c37 -41 -14 -100 -85 -100 -22 0 -80 50 -80 69 0 17 72 50
111 51 23 0 42 -7 54 -20z m-169 -71 c49 -45 168 -148 264 -228 179 -151 207
-177 197 -187 -7 -7 -197 138 -307 233 -91 79 -267 263 -253 263 5 0 49 -37
99 -81z m267 -309 l117 -94 -42 -43 c-38 -39 -44 -42 -62 -29 -12 7 -59 37
-106 66 -106 66 -172 125 -231 209 -51 72 -86 158 -76 184 9 25 20 21 42 -15
30 -53 138 -179 212 -249 69 -64 184 -139 213 -139 18 1 6 10 -85 70 -95 61
-205 170 -279 274 -38 53 -72 99 -77 102 -5 3 -9 9 -9 14 0 4 60 -51 133 -123
73 -73 185 -175 250 -227z m18 270 c26 -14 25 -69 -2 -104 -24 -31 -48 -33
-80 -7 -21 17 -22 21 -9 50 11 27 53 71 67 71 2 0 13 -5 24 -10z m-114 -16 c3
-8 2 -24 -3 -35 -9 -20 -10 -20 -33 2 -23 21 -23 23 -5 36 23 17 33 17 41 -3z
m-291 -91 c21 -42 63 -103 92 -135 53 -57 210 -173 278 -206 36 -17 41 -37 13
-55 -44 -28 -216 80 -348 218 -106 111 -131 148 -131 189 0 30 24 66 45 66 6
0 29 -35 51 -77z m-116 -11 c0 -56 198 -270 323 -349 23 -14 64 -34 92 -44 27
-9 48 -21 46 -26 -7 -16 -104 -83 -129 -90 -13 -3 -35 -2 -48 3 -29 11 -241
186 -347 286 -64 60 -77 78 -77 104 0 33 34 75 49 58 4 -5 29 -40 55 -77 96
-137 254 -278 361 -323 56 -23 78 -12 24 13 -114 51 -293 215 -385 352 l-43
65 32 28 c40 34 47 35 47 0z m663 8 c18 -26 5 -106 -22 -134 -19 -18 -20 -18
-80 34 -34 29 -61 55 -61 57 0 2 21 17 47 33 55 35 96 39 116 10z m-683 -305
c25 -25 77 -69 115 -98 39 -28 90 -69 115 -92 25 -22 56 -48 70 -58 l25 -18
-30 6 c-37 7 -57 21 -206 147 -106 88 -209 193 -209 212 0 11 68 -45 120 -99z
m73 -129 c37 -32 66 -61 63 -63 -7 -7 -157 118 -190 158 -41 49 -30 53 17 7
23 -24 73 -69 110 -102z"/>
<path d="M104 13747 c-43 -25 -104 -81 -104 -95 0 -9 22 4 55 32 70 60 110 68
151 32 32 -29 31 -31 -35 -68 -24 -13 -31 -24 -31 -47 0 -27 -7 -34 -50 -56
-48 -25 -50 -27 -50 -69 0 -30 -6 -48 -20 -61 -22 -20 -26 -35 -10 -35 24 0
50 41 50 80 0 37 3 42 49 71 41 24 50 36 53 62 2 27 10 35 46 51 32 15 42 25
42 43 0 13 2 23 5 23 15 0 126 -62 154 -86 29 -24 111 -134 111 -148 0 -4 -6
-6 -14 -6 -18 0 -25 -20 -19 -53 5 -23 2 -27 -19 -27 -36 0 -56 -28 -64 -88
-6 -49 -8 -52 -35 -52 -45 0 -69 -31 -69 -89 l0 -49 -72 20 c-81 23 -137 48
-185 84 -36 27 -43 29 -43 11 0 -20 74 -63 169 -98 191 -70 369 -40 428 74 25
49 13 141 -31 234 -82 171 -171 255 -325 303 -72 23 -107 25 -137 7z m471
-410 c20 -88 9 -134 -41 -176 -58 -47 -194 -71 -208 -35 -21 54 5 104 53 104
39 0 51 17 51 77 l0 53 40 0 c43 0 43 0 41 65 l-1 40 25 -30 c14 -17 31 -58
40 -98z"/>
<path d="M19153 13618 c-53 -58 -67 -103 -60 -189 7 -81 32 -143 76 -183 41
-39 39 -20 -4 44 -19 29 -35 56 -35 61 0 4 16 11 35 15 20 3 35 12 35 20 0 11
-7 13 -27 8 -16 -4 -32 -7 -38 -8 -11 -1 -19 106 -11 139 3 12 22 43 41 69 48
62 40 79 -12 24z"/>
<path d="M356 13604 c-9 -24 12 -54 39 -54 31 0 33 22 5 50 -24 24 -36 25 -44
4z m41 -19 c8 -22 -6 -33 -17 -15 -13 20 -12 30 0 30 6 0 13 -7 17 -15z"/>
<path d="M284 13525 c-9 -21 14 -45 42 -45 29 0 31 20 6 43 -23 21 -41 22 -48
2z m44 -24 c3 -8 -1 -12 -9 -9 -7 2 -15 10 -17 17 -3 8 1 12 9 9 7 -2 15 -10
17 -17z"/>
<path d="M226 13441 c-15 -24 29 -62 54 -46 14 9 12 21 -6 39 -17 18 -40 21
-48 7z m44 -22 c0 -5 -7 -9 -15 -9 -8 0 -15 7 -15 15 0 9 6 12 15 9 8 -4 15
-10 15 -15z"/>
<path d="M14515 13429 c-81 -24 -118 -55 -177 -144 -89 -136 -103 -307 -39
-460 22 -50 48 -93 71 -116 21 -20 43 -46 49 -57 8 -14 25 -24 51 -28 21 -4
51 -14 67 -24 30 -18 159 -197 175 -243 19 -52 66 -60 169 -26 103 34 138 57
229 148 167 168 213 278 156 375 -14 25 -39 54 -56 66 -16 11 -68 63 -115 115
-76 85 -85 99 -85 134 0 29 -5 41 -18 45 -9 3 -41 33 -70 66 -63 71 -117 110
-192 138 -86 31 -135 34 -215 11z m220 -40 c45 -18 80 -42 140 -100 44 -43 77
-80 73 -84 -4 -4 -35 21 -70 57 -67 68 -144 111 -229 129 -42 9 -60 8 -119
-10 -56 -17 -79 -31 -116 -69 -78 -79 -89 -114 -89 -277 0 -133 1 -143 28
-202 16 -33 42 -74 58 -89 42 -40 37 -61 -6 -27 -106 83 -148 342 -81 489 47
103 123 177 207 203 49 15 135 6 204 -20z m-25 -38 c57 -22 169 -107 189 -145
12 -21 12 -28 1 -41 -12 -14 -15 -14 -34 4 -48 45 -141 56 -177 20 -16 -16
-20 -30 -17 -60 3 -38 3 -39 -30 -39 -22 0 -41 -8 -59 -26 -25 -25 -27 -47 -7
-98 6 -16 4 -18 -12 -11 -10 4 -36 10 -56 13 -33 4 -39 1 -57 -29 -34 -56 -23
-140 23 -178 16 -13 13 -31 -5 -31 -20 0 -80 76 -98 126 -40 106 -36 287 9
373 60 117 203 170 330 122z m228 -224 c-131 -151 -241 -268 -295 -313 -32
-27 -89 -76 -127 -109 -38 -33 -67 -54 -65 -47 7 22 522 541 531 536 5 -3 -15
-33 -44 -67z m-119 39 c51 -24 50 -41 -9 -101 -61 -62 -66 -61 -99 15 -22 51
-18 92 11 103 16 7 65 -1 97 -17z m186 -91 c19 -19 35 -39 35 -45 0 -20 -138
-204 -192 -256 -89 -86 -248 -165 -298 -149 -30 10 -24 23 21 46 67 34 179
117 252 188 82 79 160 184 155 208 -2 13 -15 0 -43 -42 -53 -81 -196 -221
-281 -274 -38 -24 -89 -57 -113 -73 -75 -50 -55 -24 36 49 48 38 156 140 238
226 83 86 151 157 153 157 1 0 18 -16 37 -35z m-303 -44 c31 -28 32 -30 18
-56 -19 -35 -33 -40 -71 -25 -44 19 -65 54 -51 85 16 35 62 33 104 -4z m386
-33 c51 -51 -96 -247 -298 -399 -91 -69 -131 -81 -166 -48 -13 12 -24 27 -24
33 1 6 44 32 98 58 53 25 116 63 139 83 44 38 170 192 205 251 22 37 28 40 46
22z m107 -144 c24 -47 25 -54 13 -83 -18 -43 -338 -374 -382 -395 -33 -15 -38
-15 -66 -1 -16 8 -30 22 -30 30 0 7 25 28 56 46 179 102 352 279 388 397 12
37 -9 24 -28 -18 -42 -95 -259 -300 -392 -369 l-46 -25 -28 35 -29 34 36 8
c50 10 177 104 279 206 67 67 94 103 122 163 l37 76 22 -26 c12 -15 34 -50 48
-78z m-640 62 c8 -12 18 -36 21 -54 6 -27 2 -36 -26 -62 -18 -16 -38 -30 -45
-30 -7 0 -22 23 -35 51 -18 44 -20 55 -9 80 21 51 66 58 94 15z m86 3 c21 -11
18 -23 -11 -39 -15 -8 -21 -6 -30 10 -19 35 2 50 41 29z m615 -174 c-12 -47
-291 -330 -373 -379 -35 -20 6 29 70 85 40 34 101 97 138 141 36 43 74 85 85
92 11 8 33 33 49 55 30 45 41 47 31 6z m-76 -151 c0 -13 -166 -176 -194 -191
-16 -8 17 31 77 91 99 100 117 115 117 100z"/>
<path d="M165 13380 c-11 -18 15 -50 40 -50 18 0 25 5 25 20 0 29 -51 53 -65
30z m49 -19 c3 -4 3 -11 0 -14 -8 -8 -34 3 -34 14 0 11 27 12 34 0z"/>
<path d="M94 13275 c-8 -20 13 -45 37 -45 27 0 33 19 13 41 -21 23 -42 25 -50
4z m44 -24 c3 -8 -1 -12 -9 -9 -7 2 -15 10 -17 17 -3 8 1 12 9 9 7 -2 15 -10
17 -17z"/>
<path d="M9685 13100 c-35 -14 -172 -137 -196 -177 -21 -33 -24 -48 -22 -125
3 -110 21 -156 86 -214 127 -114 347 -172 490 -130 167 51 182 211 40 430 -73
112 -163 178 -290 211 -64 17 -79 17 -108 5z m99 -40 c16 -16 17 -22 6 -34 -7
-9 -19 -16 -26 -16 -22 0 -54 -38 -54 -65 0 -18 -9 -29 -38 -44 -50 -26 -60
-39 -64 -85 -3 -45 -34 -73 -83 -78 l-30 -3 -3 67 c-2 44 2 77 12 95 17 34
130 149 171 175 35 22 80 17 109 -12z m105 -29 c77 -40 114 -72 163 -144 35
-52 39 -61 24 -69 -10 -6 -16 -22 -16 -43 0 -29 -4 -35 -22 -35 -29 0 -58 -28
-58 -55 0 -13 -3 -37 -6 -54 -6 -26 -11 -31 -35 -31 -46 0 -71 -33 -68 -88 3
-45 2 -47 -21 -43 -74 10 -179 54 -239 99 -53 40 -111 110 -111 134 0 3 22 11
49 18 63 15 85 39 85 93 1 37 5 43 39 63 49 27 59 38 62 66 1 13 3 26 4 29 0
4 19 14 41 23 32 13 40 21 40 41 0 14 2 25 5 25 3 0 32 -13 64 -29z m225 -256
c10 -14 24 -55 33 -91 13 -52 14 -72 4 -103 -22 -74 -101 -121 -203 -121 -46
0 -47 1 -53 34 -9 43 8 74 43 81 49 11 57 20 62 76 l5 54 40 5 40 5 -3 43 c-4
48 8 54 32 17z"/>
<path d="M9933 12958 c-18 -22 3 -58 32 -58 21 0 26 4 23 21 -4 30 -41 54 -55
37z m34 -23 c8 -22 -6 -33 -17 -15 -13 20 -12 30 0 30 6 0 13 -7 17 -15z"/>
<path d="M9855 12873 c-6 -17 25 -53 46 -53 19 0 21 31 4 50 -22 25 -41 25
-50 3z m43 -22 c3 -8 -1 -12 -9 -9 -7 2 -15 10 -17 17 -3 8 1 12 9 9 7 -2 15
-10 17 -17z"/>
<path d="M9795 12790 c-11 -18 15 -50 40 -50 18 0 25 5 25 20 0 29 -51 53 -65
30z m49 -19 c3 -4 3 -11 0 -14 -8 -8 -34 3 -34 14 0 11 27 12 34 0z"/>
<path d="M9742 12713 c2 -22 9 -29 31 -31 22 -3 27 1 27 17 0 19 -26 41 -50
41 -6 0 -10 -12 -8 -27z m46 -11 c3 -9 -2 -13 -14 -10 -9 1 -19 9 -22 16 -3 9
2 13 14 10 9 -1 19 -9 22 -16z"/>
<path d="M9664 12625 c-9 -21 14 -45 42 -45 29 0 31 20 6 43 -23 21 -41 22
-48 2z m44 -24 c3 -8 -1 -12 -9 -9 -7 2 -15 10 -17 17 -3 8 1 12 9 9 7 -2 15
-10 17 -17z"/>
<path d="M7007 12253 c-10 -161 -8 -211 8 -244 17 -32 55 -52 80 -43 10 4 15
0 15 -12 0 -13 -17 -26 -50 -41 -64 -28 -68 -58 -14 -99 l36 -28 -7 -61 c-6
-60 -6 -62 40 -129 56 -82 72 -126 83 -231 9 -76 8 -82 -14 -108 -37 -44 -29
-87 15 -87 28 0 207 65 229 82 16 14 15 54 -3 114 -9 31 -11 52 -5 58 13 13
12 69 0 122 -12 54 -41 115 -90 193 -35 57 -40 72 -40 126 0 89 -23 107 -117
91 -24 -4 -43 -6 -43 -4 0 1 11 25 25 52 14 27 25 60 25 73 0 36 -33 93 -80
138 -48 46 -70 83 -70 120 0 14 -4 25 -8 25 -5 0 -12 -48 -15 -107z m143 -180
c0 -49 -17 -90 -27 -65 -8 19 -23 14 -23 -8 0 -25 -11 -25 -42 0 -32 25 -40
65 -32 166 l6 81 59 -63 c55 -59 59 -67 59 -111z m110 -152 c5 -11 10 -46 10
-78 0 -53 5 -66 50 -138 51 -81 75 -139 86 -212 5 -36 4 -43 -10 -43 -21 0
-20 -10 6 -92 16 -48 19 -74 12 -85 -12 -19 -181 -84 -209 -81 -27 4 -23 38 7
61 l24 18 -13 101 c-14 109 -41 182 -93 247 -34 42 -38 61 -25 127 7 40 6 43
-34 74 -62 50 -56 62 53 100 70 25 122 25 136 1z"/>
<path d="M7056 12096 c-7 -28 8 -76 24 -76 6 0 8 15 4 40 -8 47 3 53 17 10 6
-16 15 -30 19 -30 18 0 18 18 0 48 -24 39 -55 42 -64 8z"/>
<path d="M7155 11758 c4 -13 10 -45 12 -71 4 -42 8 -48 26 -45 12 2 23 12 25
22 3 14 0 17 -12 13 -13 -5 -16 1 -16 29 0 39 -15 74 -32 74 -6 0 -8 -8 -3
-22z"/>
<path d="M7255 11700 c-8 -13 22 -117 41 -144 16 -23 18 -36 6 -36 -5 0 -14
10 -19 23 -10 20 -12 20 -18 4 -10 -23 13 -49 39 -45 30 4 31 32 2 90 -14 29
-26 67 -26 85 0 32 -12 43 -25 23z"/>
<path d="M7289 11385 c-1 -6 0 -26 1 -45 1 -24 -6 -45 -21 -64 -13 -17 -17
-27 -9 -24 41 13 70 102 42 130 -7 7 -12 8 -13 3z"/>
<path d="M2893 12259 c-140 -27 -221 -121 -258 -297 -42 -201 2 -360 113 -413
82 -40 195 -2 328 108 107 90 166 194 180 317 11 96 2 119 -79 187 -122 103
-173 120 -284 98z m164 -42 c62 -33 162 -114 175 -142 12 -27 6 -61 -16 -90
-15 -19 -17 -19 -52 23 -31 37 -41 42 -64 37 -24 -5 -33 0 -65 39 -35 44 -38
45 -88 43 -47 -2 -52 0 -74 32 -33 49 -27 64 32 78 60 14 97 10 152 -20z
m-213 -53 c22 -53 58 -74 115 -67 33 4 39 1 69 -35 25 -33 40 -41 69 -44 30
-2 42 -10 58 -36 15 -24 26 -31 43 -29 29 5 29 -14 -1 -96 -27 -73 -47 -102
-112 -159 -37 -33 -48 -38 -60 -28 -9 8 -28 10 -50 6 -29 -6 -35 -4 -35 10 0
36 -30 54 -90 54 -55 0 -56 1 -69 35 -14 40 -41 51 -103 41 l-41 -7 7 75 c7
79 32 164 62 213 24 38 96 113 109 113 5 0 19 -21 29 -46z m-79 -412 l20 -43
57 6 c50 6 58 4 67 -13 6 -11 8 -22 4 -25 -3 -4 -1 -13 6 -21 9 -11 20 -12 47
-4 78 21 44 -26 -49 -68 -84 -37 -136 -37 -185 2 -41 33 -80 101 -89 157 -5
32 -2 38 18 46 13 6 38 9 54 8 25 -2 33 -9 50 -45z"/>
<path d="M12322 12211 c-62 -22 -117 -70 -133 -119 -24 -71 9 -173 98 -309 75
-114 165 -178 299 -209 90 -20 114 -11 206 84 95 98 108 123 108 210 0 178
-86 273 -304 336 -106 31 -198 33 -274 7z m136 -50 c4 -50 -5 -62 -56 -76
l-37 -11 0 -59 0 -60 -40 -5 -40 -5 3 -50 3 -50 -26 30 c-49 58 -70 178 -40
235 31 60 114 101 195 97 34 -2 35 -3 38 -46z m114 29 c84 -21 119 -37 186
-82 38 -26 102 -100 102 -117 0 -4 -23 -14 -50 -24 -61 -22 -85 -53 -77 -102
5 -32 2 -37 -43 -69 -39 -28 -49 -42 -52 -68 -2 -26 -10 -37 -40 -53 -27 -14
-38 -27 -38 -43 0 -20 -4 -22 -22 -16 -88 27 -171 90 -227 171 -20 30 -21 35
-7 54 9 14 13 33 9 50 -5 25 -2 29 16 29 37 0 61 35 61 88 0 48 1 49 38 60 47
14 65 47 56 103 -4 21 -3 39 2 39 5 0 44 -9 86 -20z m304 -306 c5 -49 3 -67
-14 -100 -27 -54 -127 -165 -168 -187 -33 -18 -35 -18 -71 0 -20 10 -39 23
-41 30 -2 7 15 23 37 37 31 20 40 33 43 57 2 25 13 39 48 64 41 29 45 36 48
77 2 28 10 52 20 61 22 19 75 36 84 28 5 -4 11 -34 14 -67z"/>
<path d="M17040 11880 c-64 -10 -103 -45 -98 -89 5 -40 -25 -39 -40 2 -27 75
-79 85 -117 24 -19 -29 -25 -32 -75 -33 -30 -1 -60 -2 -66 -3 -6 0 -38 -23
-71 -49 -72 -58 -117 -77 -226 -96 -79 -14 -83 -14 -103 5 -14 13 -32 19 -49
17 -51 -6 -51 -26 -5 -129 23 -52 48 -104 56 -116 18 -29 57 -30 119 -3 37 16
49 17 65 8 43 -27 192 26 288 102 59 47 90 60 145 60 58 0 87 22 87 65 0 19
-5 46 -12 60 -6 14 -8 28 -5 31 3 4 31 -4 61 -16 54 -23 56 -23 100 -6 31 12
61 35 93 72 48 57 87 84 123 84 11 0 20 5 20 10 0 12 -207 11 -290 0z m119
-85 c-62 -60 -70 -65 -110 -65 -48 0 -79 13 -60 24 18 11 13 26 -9 26 -37 0
-14 51 31 69 13 5 67 10 119 10 l95 1 -66 -65z m-297 28 c18 -22 68 -147 68
-171 0 -36 -18 -46 -89 -53 -64 -5 -76 -10 -129 -51 -79 -63 -139 -91 -234
-112 -21 -5 -28 -3 -28 9 0 21 -14 19 -93 -12 -50 -20 -73 -24 -85 -17 -20 13
-102 193 -95 211 8 20 37 15 62 -11 19 -20 27 -22 59 -16 20 5 64 14 96 20 85
17 133 41 196 94 54 47 56 48 109 42 64 -6 82 2 110 49 23 40 32 42 53 18z"/>
<path d="M17014 11816 c-26 -20 -10 -32 22 -17 15 6 29 9 33 6 6 -7 -21 -30
-43 -38 -21 -8 3 -19 28 -13 28 7 50 40 42 62 -7 18 -57 18 -82 0z"/>
<path d="M16734 11705 c-10 -8 -35 -15 -55 -15 -37 0 -66 -21 -54 -40 9 -15
35 -12 35 5 0 10 10 15 34 15 19 0 44 8 57 18 27 22 11 38 -17 17z"/>
<path d="M16584 11570 c-67 -34 -91 -39 -55 -11 28 21 13 38 -19 21 -23 -12
-26 -42 -6 -59 11 -10 26 -6 71 18 31 17 72 33 91 37 19 3 34 10 34 15 0 19
-59 8 -116 -21z"/>
<path d="M16263 11545 c27 -24 68 -32 101 -19 31 12 15 24 -24 18 -28 -5 -47
-2 -64 10 -38 24 -45 19 -13 -9z"/>
<path d="M18974 10602 c-23 -15 -64 -113 -76 -181 -19 -110 0 -313 36 -383 15
-29 47 -92 71 -139 27 -53 58 -98 80 -116 l36 -30 -37 -44 c-51 -61 -76 -122
-82 -200 l-4 -66 -58 -11 c-32 -7 -63 -19 -70 -27 -16 -19 -8 -19 64 0 64 17
76 14 76 -19 0 -20 -9 -24 -77 -39 -87 -19 -126 -37 -81 -37 15 0 57 7 94 16
44 10 70 12 77 5 18 -18 0 -36 -62 -59 -33 -13 -61 -28 -61 -33 0 -15 26 -10
88 17 l59 25 66 -65 c36 -36 70 -66 76 -66 23 0 9 29 -24 50 -31 19 -75 68
-75 84 0 3 20 6 45 6 66 0 55 18 -12 22 -44 2 -58 7 -58 18 0 11 13 16 48 18
56 4 54 22 -4 22 -27 0 -46 7 -61 23 l-23 22 60 5 c57 5 59 6 36 19 -14 8 -38
11 -59 8 l-35 -6 5 69 c7 97 44 169 114 222 30 22 54 47 54 54 0 8 -15 35 -34
61 -76 107 -144 287 -131 349 2 10 7 36 10 57 3 20 10 37 16 37 15 0 77 -103
109 -182 29 -73 29 -73 30 -32 0 62 -45 162 -98 217 -25 26 -49 47 -52 47 -13
0 -40 -109 -40 -162 0 -30 7 -79 16 -109 19 -64 86 -200 122 -247 18 -24 22
-36 14 -44 -41 -41 -178 181 -227 368 -21 78 -21 242 0 318 17 64 49 116 71
116 34 0 96 -75 145 -174 41 -86 49 -96 49 -68 0 61 -86 205 -148 247 -38 26
-59 30 -78 17z"/>
<path d="M9199 10450 c-26 -15 -43 -103 -36 -190 6 -77 50 -218 97 -310 20
-40 96 -127 194 -222 21 -20 54 -42 72 -48 19 -7 34 -13 34 -15 0 -1 -11 -27
-24 -56 -14 -30 -28 -75 -31 -100 -6 -42 4 -130 20 -171 5 -13 2 -18 -11 -18
-22 0 -104 -48 -104 -60 0 -15 9 -12 68 21 42 24 57 28 68 18 26 -22 14 -37
-60 -78 -41 -22 -78 -45 -81 -51 -13 -21 26 -8 95 31 64 36 74 39 87 26 14
-13 12 -18 -13 -39 -74 -62 -88 -77 -82 -84 4 -4 35 14 68 40 l60 48 47 -32
c76 -49 141 -64 261 -57 80 5 115 12 157 31 69 31 157 114 185 173 l21 45 62
-6 c76 -9 68 11 -9 22 -40 6 -49 11 -49 27 0 18 9 20 105 25 123 6 114 18 -15
22 -82 3 -90 5 -90 23 0 15 10 21 45 28 87 15 93 18 82 29 -7 7 -26 7 -62 -1
-28 -6 -57 -11 -64 -11 -7 0 -28 34 -46 75 -40 91 -65 126 -118 165 l-41 29
45 85 c25 46 48 103 52 126 l7 42 25 -38 c19 -30 45 -49 110 -81 101 -50 137
-54 146 -17 19 74 -54 243 -136 317 -59 53 -134 82 -188 73 -51 -8 -136 -70
-172 -126 -42 -65 -110 -250 -110 -299 0 -22 -3 -42 -7 -44 -5 -3 -37 -8 -73
-12 l-65 -7 -22 74 c-38 127 -218 407 -323 501 -72 65 -148 97 -181 77z m87
-41 c82 -39 209 -195 316 -387 79 -141 104 -206 91 -238 -9 -25 -21 -15 -39
34 -37 101 -54 133 -124 226 -56 74 -86 104 -132 132 -32 20 -62 33 -66 29 -4
-4 -6 -39 -6 -79 2 -112 40 -183 170 -315 57 -58 100 -109 95 -114 -21 -21
-71 10 -157 97 -105 106 -153 174 -196 277 -52 128 -66 299 -27 345 15 19 25
18 75 -7z m969 -169 c91 -44 184 -182 193 -287 6 -65 0 -66 -102 -19 -82 38
-115 73 -151 163 -25 60 -48 83 -43 41 2 -19 -9 -34 -52 -69 -63 -51 -97 -107
-120 -194 -16 -62 -36 -79 -65 -55 -45 37 29 260 117 356 79 87 140 104 223
64z m-815 -141 c71 -72 105 -119 150 -208 97 -194 62 -208 -100 -40 -78 81
-129 176 -137 254 -8 74 9 73 87 -6z m722 -67 c-7 -22 -12 -50 -12 -64 0 -25
-65 -158 -83 -169 -5 -4 -23 -2 -38 3 -24 8 -29 16 -29 41 0 50 46 137 103
194 58 60 78 58 59 -5z m-139 -256 c26 -8 70 -31 98 -52 43 -32 59 -52 91
-120 21 -45 38 -88 38 -96 0 -8 -25 -25 -55 -37 -31 -13 -60 -32 -66 -42 -13
-25 -10 -25 66 17 l65 36 0 -26 c0 -22 -5 -27 -40 -32 -36 -6 -58 -19 -48 -29
2 -2 20 0 40 4 20 5 39 6 42 3 12 -11 -17 -32 -44 -32 -15 0 -35 -9 -46 -21
-19 -21 -19 -22 1 -16 44 12 85 18 85 12 0 -21 -45 -87 -85 -124 -73 -68 -121
-84 -253 -89 -121 -4 -172 7 -227 49 -25 21 -26 39 0 39 29 0 68 21 58 31 -6
6 -22 4 -46 -6 -20 -8 -46 -15 -57 -15 -34 0 -22 28 18 40 65 21 62 32 -7 24
-48 -5 -65 -4 -71 7 -13 19 -4 27 40 34 22 4 40 10 40 15 0 16 -26 18 -64 5
-36 -13 -38 -12 -48 13 -19 45 -15 181 6 225 24 48 100 133 137 153 77 39 250
55 332 30z"/>
<path d="M9947 9652 c-19 -21 -23 -95 -7 -136 15 -42 27 -30 21 22 -8 65 -3
90 21 103 28 15 62 -19 85 -85 17 -49 18 -50 21 -19 4 37 -29 108 -57 123 -30
15 -66 12 -84 -8z"/>
<path d="M9679 9589 c-18 -18 -21 -30 -17 -85 2 -35 10 -70 16 -76 11 -11 12
0 6 53 -6 60 -4 69 15 88 11 11 24 21 29 21 23 -1 72 -65 72 -96 0 -13 5 -24
11 -24 8 0 10 17 7 52 -4 38 -12 57 -28 70 -30 25 -85 23 -111 -3z"/>
<path d="M9987 9583 c-20 -19 -2 -83 23 -83 23 0 31 22 23 60 -5 28 -29 40
-46 23z"/>
<path d="M9712 9528 c-15 -15 -15 -40 -1 -72 10 -21 15 -23 40 -14 23 8 29 16
29 37 0 27 -26 61 -46 61 -6 0 -15 -5 -22 -12z"/>
<path d="M9898 9450 c-112 -14 -139 -61 -69 -121 22 -19 50 -41 62 -50 20 -14
22 -19 11 -32 -8 -9 -22 -17 -33 -19 -26 -4 -26 -22 0 -26 11 -2 29 6 41 18
13 13 28 19 40 15 23 -7 63 12 55 26 -4 5 -17 6 -31 3 -36 -9 -32 23 11 86 38
56 45 94 19 104 -18 7 -25 6 -106 -4z m92 -33 c0 -22 -63 -107 -80 -107 -27 0
-85 44 -88 67 -3 18 5 24 50 36 93 27 118 27 118 4z"/>
<path d="M10055 9390 c3 -5 10 -10 16 -10 5 0 9 5 9 10 0 6 -7 10 -16 10 -8 0
-12 -4 -9 -10z"/>
<path d="M9730 9360 c0 -5 5 -10 10 -10 6 0 10 5 10 10 0 6 -4 10 -10 10 -5 0
-10 -4 -10 -10z"/>
<path d="M9750 9315 c0 -8 5 -15 10 -15 6 0 10 7 10 15 0 8 -4 15 -10 15 -5 0
-10 -7 -10 -15z"/>
<path d="M1 10322 c-1 -18 8 -60 20 -94 54 -160 83 -361 59 -398 -17 -25 -27
4 -33 93 -3 48 -13 103 -25 132 l-21 50 0 -45 c0 -25 6 -81 14 -125 19 -105
19 -135 0 -135 -8 0 -15 -6 -15 -14 0 -11 7 -11 42 1 33 11 66 13 137 8 134
-9 192 -33 268 -110 68 -69 78 -94 89 -212 l7 -73 -34 -1 c-42 0 -101 -20
-106 -35 -3 -8 17 -7 62 4 69 15 81 13 72 -13 -5 -11 -21 -15 -57 -15 -61 0
-67 -18 -7 -22 56 -4 50 -23 -8 -24 -59 -1 -87 -24 -29 -24 21 0 45 -4 51 -8
20 -12 -52 -76 -119 -107 -87 -40 -145 -42 -262 -11 -55 14 -102 24 -105 20
-21 -21 140 -68 239 -68 88 -1 234 68 274 128 20 31 35 32 78 6 18 -11 39 -20
47 -20 23 0 -4 25 -49 45 -26 12 -40 25 -40 37 0 23 8 23 109 -7 47 -14 86
-23 89 -21 10 11 -11 24 -55 35 -124 31 -124 31 -121 54 3 21 7 22 78 19 93
-5 86 13 -9 25 l-65 8 -17 95 c-16 96 -43 165 -73 189 -9 8 -16 18 -16 24 0 5
29 40 64 77 35 38 70 84 77 104 15 41 29 47 29 14 0 -35 32 -80 95 -134 81
-70 100 -81 119 -65 29 24 37 103 21 196 -24 134 -79 226 -161 266 -56 27
-119 22 -191 -15 -90 -46 -223 -212 -257 -320 -6 -17 -13 -18 -73 -12 -36 4
-71 9 -76 13 -5 3 -6 19 -3 35 12 60 -48 335 -98 449 l-14 34 -1 -33z m727
-192 c50 -36 88 -91 108 -157 20 -67 28 -182 15 -216 -10 -25 -13 -27 -33 -16
-12 6 -50 39 -84 73 -65 64 -73 83 -89 209 -6 47 -25 57 -25 14 0 -15 -6 -23
-19 -24 -69 -5 -190 -102 -225 -181 -18 -40 -37 -51 -62 -34 -22 14 -21 38 6
92 60 119 160 223 252 259 50 20 113 13 156 -19z m-117 -162 c-30 -74 -66
-129 -115 -178 -59 -57 -73 -59 -100 -17 -24 37 62 149 147 191 65 33 79 33
68 4z"/>
<path d="M3731 10295 c-46 -39 -57 -84 -33 -137 26 -59 47 -79 195 -187 97
-71 127 -97 122 -110 -34 -86 -14 -133 115 -266 89 -91 111 -120 129 -170 28
-75 37 -85 73 -85 49 0 98 30 185 113 101 97 173 207 173 264 0 43 -14 63 -44
63 -36 0 -101 48 -178 133 -47 51 -95 93 -121 106 -56 27 -131 28 -175 1 -18
-11 -36 -20 -41 -20 -4 0 -22 22 -39 49 -41 62 -225 239 -268 257 -46 19 -58
18 -93 -11z m135 -49 c69 -51 135 -120 199 -207 l46 -63 -39 -39 -39 -39 -59
44 c-33 24 -93 70 -134 100 -125 94 -156 156 -105 216 36 43 61 41 131 -12z
m447 -238 c47 -24 134 -100 170 -146 20 -27 57 -60 82 -73 25 -13 45 -27 45
-31 0 -3 -26 -21 -57 -38 -60 -34 -196 -166 -239 -232 -13 -21 -26 -38 -29
-38 -2 0 -13 17 -24 38 -11 20 -61 78 -111 127 -50 50 -98 102 -106 117 -34
65 -6 138 84 216 82 71 133 88 185 60z m327 -318 c-11 -27 -26 -66 -35 -87
-17 -42 -140 -172 -195 -207 -68 -44 -110 -40 -110 10 0 13 21 49 46 81 73 91
69 88 93 64 25 -25 48 -27 73 -4 25 22 23 40 -8 68 l-25 23 73 51 c40 27 81
50 90 50 17 1 16 -2 -2 -49z m-152 -92 c18 -18 14 -38 -7 -38 -22 0 -45 25
-36 40 8 13 28 13 43 -2z"/>
<path d="M14145 10289 c-22 -11 -92 -72 -157 -136 -107 -107 -118 -115 -145
-108 -49 12 -112 17 -138 11 -13 -3 -70 -41 -127 -83 -101 -76 -175 -112 -230
-113 -38 0 -68 -33 -68 -72 0 -72 109 -240 212 -329 66 -57 88 -69 128 -69 26
0 33 6 45 33 23 55 54 86 161 157 79 54 109 81 130 116 34 59 42 129 19 173
-9 18 -15 34 -13 35 2 1 30 15 62 31 68 32 242 160 280 206 28 33 35 92 13
119 -41 52 -104 63 -172 29z m110 -15 c19 -8 38 -28 45 -45 11 -24 10 -33 -5
-56 -39 -59 -160 -150 -278 -210 l-71 -35 -28 33 c-15 18 -28 41 -28 50 0 24
219 232 271 257 52 26 52 26 94 6z m-452 -247 c44 -19 95 -79 136 -159 26 -53
32 -72 26 -99 -10 -46 -105 -142 -187 -190 -38 -23 -79 -56 -97 -80 -26 -37
-31 -40 -37 -23 -36 107 -127 244 -217 326 l-40 36 40 11 c22 6 91 47 154 92
150 107 161 111 222 86z m-371 -268 l68 -71 -25 -20 c-27 -21 -33 -56 -13 -76
17 -17 53 -15 68 3 7 8 16 15 20 15 11 0 82 -159 78 -176 -2 -11 -25 -1 -86
36 -66 41 -94 66 -136 123 -68 90 -96 147 -96 190 0 72 38 65 122 -24z m94
-110 c3 -6 -3 -21 -15 -33 -18 -17 -23 -19 -31 -7 -11 18 5 51 25 51 7 0 17
-5 21 -11z"/>
<path d="M16129 9910 c-177 -30 -213 -177 -104 -417 56 -122 168 -220 293
-257 62 -18 80 -13 179 49 70 44 119 90 139 128 24 46 30 179 10 231 -27 71
-108 147 -214 200 -138 69 -201 83 -303 66z m133 -26 c11 -7 10 -62 -2 -85 -7
-12 -21 -19 -41 -19 -48 0 -66 -15 -74 -62 -10 -59 -21 -70 -61 -62 -35 6 -38
2 -46 -66 -3 -24 -4 -24 -22 10 -27 49 -34 166 -12 207 17 34 71 72 120 84 30
8 122 3 138 -7z m105 -30 c36 -16 38 -20 22 -61 -19 -51 -61 -103 -125 -154
-66 -52 -191 -129 -210 -129 -22 0 -25 32 -4 47 12 9 20 25 20 44 0 25 4 29
28 29 37 0 59 25 68 78 6 39 9 42 39 42 18 0 44 9 59 21 21 17 26 29 26 65 0
50 -1 50 77 18z m104 -81 c10 -25 19 -46 19 -48 0 -3 -80 25 -88 31 -2 1 2 18
9 37 16 45 35 38 60 -20z m57 -16 c18 -18 29 -36 26 -40 -8 -7 -44 -10 -44 -3
0 2 -7 20 -15 40 -19 45 -8 46 33 3z m-78 -33 c22 -9 40 -19 40 -23 0 -3 -16
-16 -35 -29 -26 -16 -37 -19 -40 -10 -2 7 -9 25 -14 39 -8 23 -6 39 5 39 2 0
22 -7 44 -16z m-54 -71 c-4 -4 -43 12 -55 23 -2 2 4 13 15 25 l19 21 13 -32
c7 -18 11 -34 8 -37z m214 7 c26 -51 26 -70 -2 -70 -13 0 -40 -5 -60 -11 -41
-11 -68 -48 -68 -92 0 -20 -9 -28 -52 -43 -43 -16 -53 -24 -60 -50 -6 -23 -17
-35 -40 -44 -52 -19 -63 -27 -62 -44 1 -9 -3 -16 -8 -16 -19 0 -68 42 -68 58
0 62 205 278 314 332 62 30 82 27 106 -20z m-222 -19 c9 -5 6 -13 -13 -31 -29
-27 -30 -26 -38 18 -6 31 -5 33 16 26 12 -3 28 -9 35 -13z m-68 -25 c0 -35 0
-35 -31 -24 l-30 10 22 24 c30 33 39 30 39 -10z m-73 -71 c9 -39 8 -45 -6 -44
-25 1 -81 23 -82 33 0 8 59 54 72 56 3 0 10 -20 16 -45z m49 35 l27 -11 -23
-24 c-26 -27 -40 -19 -40 23 0 25 0 25 36 12z m336 -70 c-2 -30 -11 -71 -21
-90 -20 -39 -134 -132 -199 -162 -42 -19 -44 -19 -80 -1 -54 26 -55 56 -2 72
31 9 44 20 58 49 13 28 27 40 60 52 49 18 62 33 62 71 0 15 6 32 14 38 19 16
66 30 91 28 18 -2 20 -8 17 -57z m-478 -54 c25 -60 29 -106 7 -106 -17 0 -101
109 -101 132 0 7 48 37 60 38 3 0 18 -29 34 -64z m49 43 c20 -5 37 -12 37 -15
0 -3 -11 -21 -25 -41 l-24 -36 -21 47 c-27 65 -29 63 33 45z"/>
<path d="M17 9650 c-9 -6 -17 -20 -17 -31 0 -19 1 -19 16 -5 8 9 26 16 38 16
18 0 27 -10 39 -42 9 -24 14 -53 11 -65 -7 -24 13 -34 21 -10 17 54 15 86 -7
111 -26 29 -74 42 -101 26z"/>
<path d="M267 9613 c-18 -36 -28 -114 -18 -132 10 -16 15 -2 26 67 7 44 26 72
51 72 25 0 54 -61 54 -113 0 -30 4 -46 10 -42 13 8 13 84 -1 124 -13 36 -35
51 -78 51 -23 0 -34 -7 -44 -27z"/>
<path d="M19182 9613 c-15 -29 -25 -120 -14 -127 13 -8 18 11 27 87 7 59 3 70
-13 40z"/>
<path d="M17 9574 c-8 -9 -10 -78 -1 -86 3 -3 17 -3 32 1 24 7 27 13 27 47 0
34 -3 39 -25 42 -14 2 -29 0 -33 -4z"/>
<path d="M301 9541 c-18 -33 -14 -71 8 -71 26 0 39 19 37 55 -1 36 -29 46 -45
16z"/>
<path d="M6115 9492 c-119 -41 -170 -69 -222 -120 -102 -102 -117 -205 -43
-286 77 -83 261 -166 370 -166 110 0 262 53 295 103 17 27 55 195 55 247 0 52
-31 110 -91 171 -63 64 -103 79 -210 79 -54 -1 -96 -9 -154 -28z m175 1 c0 -5
-7 -16 -14 -25 -12 -17 -15 -17 -56 -1 -35 14 -39 18 -24 24 25 10 94 11 94 2z
m104 -18 l37 -16 -30 -38 c-45 -57 -49 -90 -16 -129 l27 -33 -21 -49 c-25 -59
-26 -68 -4 -92 16 -18 16 -21 -7 -63 -20 -37 -22 -46 -10 -59 16 -20 15 -21
-33 -34 l-39 -11 -21 47 c-18 41 -21 66 -21 192 -1 165 6 222 34 268 22 37 47
41 104 17z m-199 -12 l35 -17 -42 -23 c-22 -13 -41 -22 -42 -21 -1 2 -8 17
-18 35 -9 17 -14 34 -10 37 10 11 41 6 77 -11z m-79 -45 c28 -62 25 -224 -5
-338 -25 -96 -31 -105 -60 -95 -17 5 -19 10 -11 25 8 15 6 24 -11 41 -18 18
-20 25 -10 38 34 48 35 59 7 101 -31 47 -31 45 -6 77 28 36 26 84 -5 113 -14
13 -25 27 -25 31 0 9 77 47 96 48 6 1 20 -18 30 -41z m130 -19 c-3 -17 -6 -38
-6 -45 0 -11 -9 -10 -40 6 -22 11 -40 23 -40 25 0 9 64 45 79 45 10 0 12 -8 7
-31z m250 -14 c45 -56 53 -106 34 -237 -16 -112 -41 -148 -101 -148 -45 0 -48
10 -22 65 16 33 16 38 1 63 -16 26 -15 31 3 71 24 54 24 67 -1 98 -11 14 -20
35 -20 46 0 25 40 87 57 87 6 0 28 -20 49 -45z m-504 -12 c33 -31 36 -63 8
-88 -32 -29 -34 -52 -7 -87 39 -53 39 -55 6 -86 l-31 -29 27 -32 c15 -17 25
-34 22 -38 -8 -7 -86 32 -117 60 -72 64 -88 125 -55 204 13 31 99 123 114 123
3 0 18 -12 33 -27z m211 -36 c24 -18 28 -29 25 -59 l-3 -36 -28 23 -27 24 27
15 c16 8 22 15 15 16 -7 0 -22 -5 -33 -10 -17 -10 -19 -7 -19 20 0 36 6 37 43
7z m7 -108 c0 -10 -48 -35 -54 -28 -2 2 -1 18 1 36 5 31 6 32 29 16 13 -8 24
-19 24 -24z m20 -44 c0 -40 -8 -43 -41 -16 l-23 18 30 16 c16 9 30 16 32 17 1
0 2 -16 2 -35z m0 -66 c0 -5 -85 -49 -96 -49 -5 0 1 43 12 82 5 16 8 16 45 -5
21 -12 39 -24 39 -28z m11 -65 c4 -21 6 -40 5 -42 -2 -1 -26 8 -55 19 l-52 22
38 23 c21 12 42 21 48 20 5 -2 13 -20 16 -42z m-54 -36 c77 -28 105 -60 62
-71 -25 -7 -129 9 -141 21 -7 7 8 72 17 72 2 0 29 -10 62 -22z"/>
<path d="M94 9450 c-12 -4 -24 -16 -28 -25 -9 -23 27 -101 54 -115 34 -18 23
-54 -17 -58 -39 -4 -43 -19 -8 -28 16 -4 34 0 50 10 15 10 26 12 30 6 8 -13
65 -13 65 0 0 6 -11 10 -24 10 -45 0 -39 21 23 78 84 79 81 100 -17 121 -61
13 -98 13 -128 1z m168 -38 c12 -12 -35 -68 -72 -87 -23 -12 -30 -12 -49 1
-27 20 -54 71 -46 91 4 13 18 15 82 10 41 -3 80 -10 85 -15z"/>
<path d="M0 9410 c0 -5 5 -10 10 -10 6 0 10 5 10 10 0 6 -4 10 -10 10 -5 0
-10 -4 -10 -10z"/>
<path d="M10 9359 c0 -5 5 -7 10 -4 6 3 10 8 10 11 0 2 -4 4 -10 4 -5 0 -10
-5 -10 -11z"/>
<path d="M320 9356 c0 -9 5 -16 10 -16 6 0 10 4 10 9 0 6 -4 13 -10 16 -5 3
-10 -1 -10 -9z"/>
<path d="M1765 8800 c-34 -13 -45 -34 -69 -133 -13 -53 -27 -100 -31 -106 -3
-7 -42 -11 -94 -11 -100 0 -111 -7 -130 -75 -14 -53 -14 -100 2 -113 6 -5 35
-13 62 -17 59 -8 95 -28 95 -53 0 -9 -12 -78 -26 -154 -34 -177 -31 -198 38
-232 64 -32 105 -33 149 -3 43 29 66 90 84 225 8 62 19 111 28 119 10 10 50
18 117 23 123 10 132 16 138 100 4 57 3 61 -30 94 -24 24 -46 35 -78 40 -25 4
-58 10 -73 13 l-29 5 7 107 c5 77 4 114 -5 130 -21 41 -104 62 -155 41z m99
-30 c39 -14 44 -36 31 -134 -14 -116 -9 -126 72 -143 83 -16 117 -36 133 -72
14 -34 7 -93 -13 -109 -6 -5 -48 -13 -92 -16 -153 -13 -149 -9 -170 -149 -18
-117 -40 -189 -64 -211 -66 -59 -181 -19 -181 64 0 20 9 86 20 146 24 131 25
177 5 194 -8 7 -41 17 -72 24 -73 14 -90 39 -70 107 l13 44 97 3 c112 3 119 8
137 103 14 74 30 121 48 142 17 19 66 23 106 7z"/>
<path d="M11325 8302 c-66 -41 -72 -77 -30 -202 15 -44 24 -87 22 -95 -3 -7
-35 -30 -70 -49 -36 -20 -71 -43 -77 -51 -29 -35 17 -167 59 -173 12 -2 40 4
62 12 22 9 53 16 69 16 35 0 42 -11 95 -164 21 -59 48 -122 60 -140 19 -28 26
-31 80 -34 73 -3 113 18 140 73 15 34 16 45 5 94 -7 31 -30 98 -52 149 -22 53
-36 101 -33 112 3 10 39 41 80 69 95 66 106 81 93 129 -16 57 -45 90 -88 102
-33 9 -48 7 -105 -15 -37 -14 -71 -25 -76 -25 -5 0 -29 42 -53 94 -24 52 -53
99 -64 105 -31 17 -83 13 -117 -7z m112 -24 c5 -7 25 -48 44 -92 42 -99 55
-106 140 -77 100 34 141 24 174 -39 25 -48 19 -66 -32 -101 -94 -63 -133 -100
-133 -124 0 -12 18 -68 40 -124 68 -167 64 -230 -14 -268 -40 -18 -95 -12
-119 15 -8 9 -38 77 -65 150 -28 74 -58 142 -68 153 -21 23 -45 24 -105 3 -26
-10 -54 -14 -62 -11 -23 9 -47 49 -54 90 l-5 35 80 42 c44 23 83 48 86 55 3 8
-1 36 -9 62 -7 26 -21 75 -30 107 -20 71 -14 100 23 120 33 19 96 20 109 4z"/>
<path d="M7240 7750 c-8 -5 -23 -7 -32 -4 -11 3 -23 -4 -33 -20 -9 -14 -26
-26 -38 -28 -15 -2 -23 -11 -25 -28 -2 -13 -11 -29 -19 -36 -10 -7 -14 -20
-11 -37 4 -20 0 -28 -14 -33 -14 -4 -17 -11 -13 -27 11 -39 60 -101 102 -131
46 -32 95 -37 188 -22 l50 8 140 -117 c77 -65 142 -122 143 -126 7 -19 -45 -8
-80 16 -55 37 -207 61 -223 35 -4 -6 6 -10 22 -10 33 0 69 -19 162 -84 54 -38
81 -50 119 -54 65 -6 106 16 122 64 19 58 0 104 -71 172 -70 66 -119 136 -119
168 0 31 -16 39 -24 11 -21 -77 2 -138 80 -213 24 -24 44 -48 44 -54 0 -13
-223 193 -244 224 -9 14 -12 40 -8 78 2 31 1 69 -2 83 -9 34 -79 111 -135 147
-49 30 -58 33 -81 18z m133 -87 c59 -57 85 -139 57 -183 -7 -12 -13 -11 -34
10 -15 13 -26 30 -26 37 0 8 -20 35 -44 61 -24 26 -48 57 -55 69 -12 24 -15
66 -4 76 9 9 58 -23 106 -70z m-143 37 c0 -13 -5 -18 -15 -14 -16 7 -19 17 -8
27 12 13 23 7 23 -13z m-28 -32 c42 -12 106 -76 138 -138 33 -62 359 -368 380
-355 21 13 9 42 -36 85 -50 50 -62 68 -74 114 -8 26 -7 28 3 11 7 -11 44 -54
84 -95 74 -77 93 -110 93 -160 0 -54 -69 -75 -152 -46 -45 16 -145 89 -130 94
7 2 26 -4 44 -14 106 -56 106 -56 127 -44 12 6 21 17 21 24 0 8 -48 54 -107
104 -98 81 -146 128 -210 205 -19 23 -31 27 -71 27 -70 0 -109 29 -151 112
-43 87 -37 100 41 76z m-54 -117 c-15 -5 -50 38 -41 52 4 6 16 -1 30 -19 14
-19 19 -30 11 -33z m57 -60 c36 -23 61 -31 94 -31 44 0 104 -30 90 -44 -3 -4
-46 -7 -95 -8 -68 -2 -96 1 -120 14 -33 18 -94 92 -94 115 0 17 60 -5 125 -46z"/>
<path d="M17361 7525 c-74 -67 -99 -163 -65 -243 38 -88 39 -79 -52 -257 -47
-91 -90 -165 -95 -165 -14 0 -11 41 7 94 19 55 12 187 -11 206 -11 9 -13 1
-13 -42 1 -42 -7 -69 -36 -128 -44 -91 -49 -158 -13 -210 12 -19 29 -36 37
-38 8 -3 2 9 -13 27 -36 44 -36 107 0 201 39 100 62 89 27 -12 -21 -64 -16
-112 13 -116 19 -3 30 13 84 120 56 112 103 188 160 260 20 24 20 30 9 76 -10
43 -9 56 5 85 26 56 123 136 147 121 4 -3 8 -25 8 -50 0 -52 -33 -107 -110
-185 -70 -72 -281 -425 -263 -443 19 -19 45 -2 74 49 17 31 45 66 63 79 48 36
63 42 41 17 -11 -12 -45 -59 -75 -104 -42 -63 -65 -87 -100 -104 -40 -21 -42
-23 -17 -23 46 0 80 25 117 85 61 99 100 145 143 167 l42 23 -29 3 c-45 6
-112 -17 -138 -47 -13 -14 -39 -50 -58 -78 -40 -60 -64 -73 -29 -15 121 198
153 249 167 260 9 6 32 12 51 12 88 1 171 77 206 188 16 48 16 55 1 86 -9 19
-16 39 -16 45 0 6 -9 11 -20 11 -13 0 -24 10 -30 26 -9 22 -15 25 -38 21 -17
-3 -34 1 -45 10 -13 13 -22 14 -41 5 -19 -9 -25 -8 -30 4 -8 22 -22 17 -65
-21z m49 -30 c0 -19 -9 -58 -21 -87 -17 -42 -19 -65 -14 -113 4 -45 2 -65 -9
-80 -12 -16 -15 -17 -19 -5 -3 8 -12 37 -21 64 -18 56 -21 122 -7 159 11 29
69 97 82 97 5 0 9 -16 9 -35z m70 17 c0 -5 -11 -19 -25 -32 -26 -24 -33 -14
-15 21 11 19 40 27 40 11z m130 -77 c0 -8 -2 -15 -4 -15 -2 0 -12 -3 -21 -7
-15 -5 -16 -3 -6 15 13 25 31 29 31 7z m26 -48 c6 -17 -30 -103 -62 -144 -14
-18 -37 -39 -52 -47 -34 -17 -112 -31 -112 -19 0 18 9 29 144 176 43 47 72 59
82 34z"/>
<path d="M14525 7507 c-48 -27 -107 -102 -103 -132 2 -15 -22 -49 -79 -114
-45 -52 -83 -101 -86 -111 -11 -44 60 -166 148 -253 70 -68 140 -114 221 -142
107 -38 123 -35 202 36 37 34 86 82 109 108 33 35 45 43 52 32 16 -25 63 -16
92 17 87 98 50 255 -98 412 -81 86 -155 131 -254 155 -92 21 -156 19 -204 -8z
m200 -17 c101 -26 153 -57 236 -141 82 -83 131 -175 137 -258 5 -69 -16 -126
-52 -142 -23 -11 -28 -9 -55 20 -16 17 -36 31 -45 31 -26 0 -88 35 -116 65
-37 39 -56 47 -139 55 -94 10 -111 26 -111 109 0 39 -7 71 -22 101 -22 43 -25
45 -66 45 -51 0 -53 12 -10 61 69 79 111 88 243 54z m-191 -169 c12 -22 20
-56 22 -100 2 -59 6 -69 32 -92 22 -20 44 -27 97 -33 78 -8 89 -13 162 -72 30
-24 61 -44 71 -44 9 0 24 -4 31 -9 12 -8 -4 -29 -73 -99 -85 -88 -148 -133
-163 -119 -4 4 14 29 40 55 40 41 59 72 43 72 -3 0 -30 -27 -62 -60 -31 -33
-60 -60 -65 -60 -4 0 -38 14 -75 30 l-67 31 41 42 c23 24 42 46 42 50 0 17
-23 4 -66 -35 l-45 -41 -39 38 c-22 22 -40 44 -40 49 0 6 12 20 28 32 40 32
19 42 -22 10 l-35 -27 -31 42 c-16 23 -30 45 -30 49 0 3 27 33 61 65 34 33 56
61 50 63 -7 2 -36 -19 -66 -47 -30 -28 -58 -51 -63 -51 -16 0 -34 57 -26 82
17 54 182 222 212 216 9 -2 25 -18 36 -37z"/>
<path d="M14653 7433 c-25 -10 -12 -32 25 -42 50 -14 62 -14 62 3 0 30 -53 53
-87 39z"/>
<path d="M14804 7265 c-4 -9 -2 -21 4 -27 15 -15 44 -1 40 19 -4 23 -36 29
-44 8z"/>
<path d="M14662 7208 c4 -31 53 -34 53 -3 0 15 -8 21 -28 23 -25 3 -28 0 -25
-20z"/>
<path d="M14901 7166 c-9 -11 -8 -18 5 -30 22 -22 38 -15 42 17 3 21 -1 27
-16 27 -11 0 -25 -6 -31 -14z"/>
<path d="M15023 7065 c-9 -24 9 -69 28 -73 23 -4 31 25 17 56 -16 32 -36 39
-45 17z m37 -48 c0 -5 -4 -5 -10 -2 -5 3 -10 14 -10 23 0 15 2 15 10 2 5 -8
10 -19 10 -23z"/>
<path d="M4725 7326 c-103 -26 -232 -111 -265 -176 -30 -58 -28 -159 4 -197
20 -24 24 -45 33 -150 11 -141 18 -154 97 -179 80 -25 258 -30 336 -10 88 22
183 70 215 108 27 32 27 32 23 173 l-3 142 29 9 c60 18 55 112 -9 183 -39 43
-127 86 -205 101 -70 13 -193 11 -255 -4z m306 -36 c115 -34 185 -106 177
-183 -3 -31 -5 -32 -53 -37 -27 -3 -62 -13 -76 -23 -15 -10 -60 -21 -102 -26
-76 -9 -110 -24 -152 -71 -43 -47 -98 -45 -138 6 -24 31 -90 63 -129 64 -17 0
-34 -9 -47 -26 -11 -14 -25 -23 -31 -19 -13 8 -13 150 0 175 14 26 125 104
186 131 89 39 248 43 365 9z m114 -327 c9 -93 1 -209 -17 -230 -11 -14 -14
-11 -20 23 -4 21 -7 56 -7 77 -1 21 -6 37 -12 37 -9 0 -10 -22 -6 -77 4 -43 3
-83 -1 -90 -8 -13 -115 -63 -135 -63 -8 0 -12 17 -12 53 0 75 -19 76 -23 0
l-3 -62 -43 -6 c-70 -11 -82 -5 -78 38 5 50 -16 48 -24 -3 l-7 -41 -46 7 c-25
4 -49 8 -53 11 -5 2 -8 40 -8 83 0 128 -26 109 -32 -25 -3 -44 -5 -50 -23 -47
-11 2 -30 13 -42 25 -19 18 -25 40 -33 126 -12 117 -6 177 18 190 26 14 87
-12 137 -58 62 -58 92 -56 177 10 61 46 73 52 145 62 43 5 87 16 98 24 36 24
43 16 50 -64z"/>
<path d="M4606 7174 c-17 -16 -21 -36 -10 -47 9 -9 84 36 84 51 0 17 -56 15
-74 -4z"/>
<path d="M5111 7177 c-13 -16 9 -40 47 -52 33 -10 42 23 13 47 -27 21 -45 23
-60 5z m43 -13 c23 -9 20 -23 -4 -17 -11 3 -20 9 -20 14 0 11 3 11 24 3z"/>
<path d="M4954 7165 c-8 -21 2 -45 19 -45 21 0 38 25 31 44 -8 20 -43 21 -50
1z"/>
<path d="M4817 7163 c-16 -15 -6 -33 18 -33 18 0 25 5 25 20 0 20 -28 28 -43
13z"/>
<path d="M4755 7034 c-15 -15 -15 -19 -1 -32 20 -20 48 -8 44 20 -4 28 -21 33
-43 12z"/>
<path d="M2814 6948 c-4 -6 -10 -25 -13 -42 -5 -23 -13 -32 -31 -34 -39 -6
-44 -19 -12 -30 27 -9 29 -13 23 -48 -6 -34 -12 -42 -54 -62 -42 -19 -52 -31
-78 -85 -16 -35 -45 -119 -64 -188 -41 -145 -44 -148 -214 -256 -111 -70 -171
-118 -171 -139 0 -7 27 -21 61 -30 33 -9 63 -23 66 -31 6 -15 -30 -178 -121
-543 -60 -239 -71 -307 -40 -248 12 24 96 345 129 498 9 41 22 100 30 130 7
30 17 77 20 103 4 27 13 51 20 54 7 2 33 -2 57 -10 35 -12 255 -52 396 -73 34
-5 38 -16 22 -60 -6 -15 -22 -77 -35 -138 -13 -61 -51 -228 -83 -371 -33 -143
-57 -262 -55 -265 12 -13 32 40 52 142 13 62 34 160 48 218 13 58 35 159 48
225 14 66 33 145 43 175 l17 55 63 -3 c35 -2 75 -7 89 -13 14 -5 28 -7 31 -4
13 13 -61 144 -131 232 -43 54 -81 109 -84 122 -3 13 4 94 17 181 29 197 24
255 -26 310 -31 34 -33 41 -26 76 6 29 14 40 32 44 l25 6 -23 13 c-21 11 -22
17 -16 57 6 43 2 55 -12 32z m-15 -243 c58 -29 64 -108 26 -330 l-25 -146 91
-112 c80 -98 138 -192 126 -204 -3 -2 -42 5 -88 16 -186 42 -279 61 -384 76
-94 14 -315 61 -323 69 -5 6 156 107 244 154 l87 47 32 95 c18 52 45 135 61
184 21 66 38 100 65 128 40 42 48 44 88 23z m-102 -741 c-3 -3 -12 -4 -19 -1
-8 3 -5 6 6 6 11 1 17 -2 13 -5z"/>
<path d="M2696 6540 c-14 -18 -28 -50 -32 -77 -8 -54 8 -73 63 -73 39 0 53 26
56 98 2 35 -3 48 -22 63 -31 25 -35 24 -65 -11z m60 -25 c8 -34 -4 -95 -21
-101 -7 -3 -23 0 -35 6 -17 9 -20 17 -15 43 15 70 58 102 71 52z"/>
<path d="M12427 6483 c-4 -7 -5 -29 -1 -48 6 -33 4 -36 -25 -46 -39 -14 -40
-29 -2 -29 21 0 30 -6 35 -22 11 -45 6 -63 -29 -91 -49 -39 -59 -83 -59 -278
-1 -192 6 -175 -136 -339 -91 -105 -120 -146 -120 -172 0 -15 10 -18 69 -18
55 0 70 -3 75 -16 7 -18 30 -380 41 -647 7 -147 15 -189 29 -151 8 20 -10 442
-24 574 -5 52 -11 128 -12 168 l-3 74 80 3 c76 3 280 25 373 41 43 7 48 3 42
-36 -1 -8 3 -69 9 -135 6 -66 18 -230 26 -365 9 -135 18 -261 21 -280 5 -30 7
-32 16 -16 7 13 6 78 -6 220 -9 110 -21 253 -26 316 -5 63 -12 149 -16 191 -9
112 -7 115 81 128 41 6 81 8 90 5 62 -24 -68 114 -177 189 -129 87 -127 85
-149 239 -25 170 -52 263 -89 300 -16 15 -35 28 -44 28 -39 0 -49 88 -13 113
l22 16 -26 0 c-24 1 -28 6 -36 49 -5 29 -11 42 -16 35z m105 -275 c28 -37 46
-114 68 -278 12 -92 25 -157 32 -159 58 -19 300 -212 285 -227 -2 -2 -77 -8
-168 -14 -90 -5 -184 -14 -209 -20 -68 -14 -212 -31 -329 -37 l-105 -6 50 63
c27 35 86 101 132 147 l82 83 1 62 c1 35 2 122 3 193 2 140 15 189 56 218 28
19 77 7 102 -25z"/>
<path d="M12436 6068 c-18 -26 -21 -109 -6 -139 11 -19 37 -24 78 -13 20 6 22
13 22 66 0 49 -4 63 -25 83 -30 31 -49 32 -69 3z m64 -27 c5 -11 10 -38 10
-61 0 -41 -1 -41 -32 -38 -29 3 -33 7 -36 37 -5 51 5 81 28 81 11 0 24 -9 30
-19z"/>
<path d="M9355 6443 c-46 -10 -94 -37 -106 -61 -40 -74 4 -188 108 -281 89
-79 169 -125 292 -166 258 -86 432 -85 522 1 93 89 -7 236 -236 351 -85 43
-212 85 -265 88 -25 1 -58 10 -75 19 -16 9 -42 16 -56 16 -15 0 -46 9 -70 20
-43 19 -72 22 -114 13z m111 -42 c28 -17 59 -50 122 -130 10 -13 24 -22 31
-20 8 3 -6 28 -39 69 -28 35 -47 66 -41 68 23 8 127 -65 207 -145 35 -36 44
-40 44 -20 0 6 -30 40 -67 74 l-68 62 60 -16 c79 -20 115 -43 177 -114 28 -32
58 -59 66 -59 20 0 -9 45 -56 87 -20 17 -34 34 -31 37 3 3 41 -15 85 -41 102
-61 198 -155 215 -211 12 -41 11 -44 -17 -73 -47 -50 -98 -69 -190 -69 -233 0
-510 115 -638 267 -34 40 -66 110 -66 146 0 43 27 86 58 93 15 3 32 7 37 9 29
10 84 3 111 -14z"/>
<path d="M16331 6046 c-33 -18 -50 -54 -51 -105 0 -60 36 -119 108 -175 60
-46 82 -86 82 -152 0 -38 -20 -145 -31 -166 -5 -10 -9 -29 -9 -43 0 -28 -3
-29 -29 -16 -11 6 -35 4 -71 -8 -61 -20 -100 -63 -100 -110 0 -36 35 -89 65
-101 14 -5 25 -17 25 -25 0 -33 92 41 129 102 10 17 13 16 33 -12 13 -16 53
-65 90 -107 38 -42 68 -80 68 -83 0 -3 -16 -13 -35 -20 -53 -23 -105 -73 -105
-103 0 -14 11 -45 25 -69 22 -37 30 -43 59 -43 41 0 111 62 124 112 6 22 11
28 15 18 38 -93 77 -204 73 -207 -2 -3 -18 5 -34 17 -42 31 -139 25 -178 -11
-39 -36 -57 -77 -50 -113 11 -59 25 -68 100 -67 57 0 77 5 122 31 30 16 54 26
54 22 0 -5 -5 -35 -11 -67 -12 -66 -35 -117 -74 -164 -18 -21 -22 -31 -13 -31
21 0 65 49 83 93 14 34 18 37 56 37 82 0 195 47 223 92 8 13 8 23 -2 38 -6 11
-12 28 -12 38 0 32 -29 62 -61 62 -57 0 -112 -43 -149 -116 l-19 -39 -1 80 c0
45 -7 107 -15 139 -9 33 -14 60 -13 60 2 1 26 8 53 14 79 20 117 45 158 102
47 68 48 101 4 145 -41 41 -106 54 -159 32 -30 -13 -39 -25 -57 -71 -11 -30
-23 -68 -27 -83 -12 -58 -15 -58 -43 -6 -16 29 -39 64 -51 80 -21 27 -21 28
-3 38 43 24 92 82 98 119 9 48 -5 80 -47 106 -45 27 -53 26 -101 -19 l-42 -39
13 -58 c6 -32 10 -60 7 -62 -2 -2 -19 13 -37 33 -77 87 -122 175 -114 220 8
38 20 51 61 61 40 9 152 89 160 114 3 11 3 25 -1 31 -3 6 -7 29 -8 50 -2 41
-29 79 -56 79 -24 0 -68 -36 -86 -73 -19 -36 -24 -29 -44 56 -11 46 -11 65 -2
91 18 49 14 145 -7 192 -31 68 -84 91 -140 60z m93 -31 c13 -14 29 -45 35 -70
14 -55 14 -125 1 -125 -5 0 -10 9 -10 19 0 26 -15 34 -40 21 -12 -7 -20 -21
-20 -38 l-1 -27 -38 41 c-68 72 -64 154 10 191 33 17 37 17 63 -12z m10 -197
c9 -36 7 -41 -9 -28 -16 13 -21 50 -6 50 5 0 11 -10 15 -22z m194 -140 c15
-15 16 -63 2 -89 -8 -15 -7 -19 5 -19 32 0 16 -17 -72 -76 -71 -47 -86 -43
-34 10 33 34 42 49 36 65 -3 12 -15 21 -26 21 -24 0 -24 5 3 43 37 56 62 69
86 45z m-88 -125 c-1 -15 -39 -58 -46 -51 -8 9 22 58 36 58 6 0 10 -3 10 -7z
m-130 -201 c0 -4 -10 -12 -22 -17 -55 -25 -47 -81 12 -78 l32 1 -24 -26 c-54
-63 -72 -66 -117 -21 -43 43 -43 88 2 123 23 18 44 26 75 26 23 0 42 -3 42 -8z
m15 -52 c0 -8 -10 -16 -22 -18 -22 -3 -32 16 -16 32 12 11 38 2 38 -14z m300
-25 c29 -28 32 -63 10 -105 -20 -38 -31 -38 -39 0 -7 38 -31 48 -56 25 -20
-18 -20 -17 -20 18 0 27 7 41 31 61 38 32 44 32 74 1z m-47 -128 c2 -18 -2
-29 -13 -33 -22 -9 -26 -2 -19 35 8 37 28 36 32 -2z m323 -66 c28 -34 23 -74
-14 -123 -33 -43 -77 -71 -132 -83 l-30 -7 23 17 c29 22 26 59 -6 63 -16 3
-27 -5 -40 -27 -31 -55 -31 -33 -1 56 44 131 49 136 121 131 48 -4 65 -9 79
-27z m-363 -77 c-21 -11 -28 -22 -28 -43 0 -33 19 -44 58 -34 25 6 25 5 -12
-40 -32 -39 -72 -67 -80 -55 -1 1 -14 22 -30 45 -15 23 -25 47 -21 53 14 22
107 90 123 90 11 -1 8 -6 -10 -16z m42 -18 c0 -18 -15 -36 -31 -36 -22 0 -24
11 -7 28 11 11 38 17 38 8z m160 -75 c0 -12 -20 -25 -27 -18 -7 7 6 27 18 27
5 0 9 -4 9 -9z m-94 -178 c27 -9 44 -18 39 -19 -6 -1 -22 -5 -36 -8 -39 -8
-50 -76 -13 -76 26 0 14 -21 -21 -36 -43 -18 -119 -18 -134 -1 -20 25 -24 75
-8 100 17 27 71 56 103 57 11 0 43 -8 70 -17z m43 -57 c10 -12 8 -17 -9 -26
-26 -14 -46 0 -37 24 8 20 31 21 46 2z m229 5 c8 -4 15 -25 17 -46 2 -21 9
-41 15 -45 17 -10 -20 -38 -88 -64 -81 -32 -119 -40 -127 -27 -4 7 5 11 22 11
62 0 89 61 30 68 l-28 3 27 32 c26 32 90 77 109 77 6 0 16 -4 23 -9z m-118
-130 c0 -10 -24 -21 -43 -21 -7 0 -3 7 7 15 22 17 36 19 36 6z"/>
<path d="M284 5970 c-106 -34 -284 -162 -284 -205 l0 -23 58 24 c31 13 67 24
78 24 12 0 32 9 45 20 l24 19 -27 1 c-15 0 -51 -9 -79 -20 -28 -12 -53 -19
-56 -17 -5 6 52 48 132 96 80 48 149 71 212 71 38 0 46 -4 63 -32 31 -51 27
-138 -9 -215 -71 -150 -225 -321 -358 -398 -46 -26 -83 -52 -83 -56 0 -36 140
51 243 150 99 96 182 206 228 306 28 59 31 73 27 141 -3 71 -6 78 -36 105 -39
35 -87 37 -178 9z"/>
<path d="M2397 5902 c-26 -16 -47 -62 -47 -104 0 -34 82 -54 94 -23 14 38 18
115 6 130 -15 19 -18 18 -53 -3z m36 -42 c-6 -54 -14 -71 -31 -68 -21 4 -26
35 -12 72 13 35 46 32 43 -4z"/>
<path d="M2704 5843 c-11 -18 -18 -48 -18 -87 -1 -57 0 -59 28 -69 38 -13 52
6 62 80 11 92 -31 137 -72 76z m51 -22 c8 -26 -15 -113 -29 -108 -6 2 -12 22
-14 45 -5 62 28 110 43 63z"/>
<path d="M19141 5721 c-28 -29 -54 -64 -57 -77 -3 -13 -26 -39 -50 -59 -24
-20 -44 -42 -44 -49 0 -6 -18 -30 -40 -51 -65 -63 -88 -169 -49 -219 31 -40
75 -58 140 -58 66 0 159 27 159 46 0 10 -17 8 -68 -7 -105 -31 -198 -7 -221
56 -9 24 12 121 30 143 19 23 77 50 139 64 76 18 102 28 96 39 -4 5 -38 1 -78
-10 -40 -10 -77 -19 -82 -19 -25 0 55 63 116 91 37 18 68 39 68 46 0 10 -10 8
-41 -7 -22 -12 -45 -20 -50 -18 -5 2 13 29 41 61 68 75 59 100 -9 28z"/>
<path d="M2473 5699 c-76 -22 -123 -101 -183 -308 -51 -176 -49 -182 57 -200
37 -7 92 -19 122 -27 78 -22 97 -14 116 48 23 80 65 284 65 321 0 41 -45 133
-74 152 -31 20 -67 25 -103 14z m85 -35 c29 -20 72 -105 72 -141 0 -33 -44
-228 -66 -295 -8 -25 -22 -49 -31 -52 -19 -8 -222 32 -240 46 -7 6 -13 19 -13
30 0 38 72 273 98 321 51 95 123 131 180 91z"/>
<path d="M2449 5618 c-22 -15 -45 -46 -65 -87 -35 -70 -78 -218 -73 -246 2 -9
20 -23 39 -30 48 -18 181 -48 186 -42 6 6 74 297 74 317 0 9 -13 37 -30 63
-26 41 -34 47 -63 47 -19 0 -49 -10 -68 -22z m111 -35 c27 -33 30 -43 25 -78
-12 -85 -61 -265 -71 -265 -26 0 -154 33 -169 44 -14 10 -13 20 10 100 38 132
73 197 115 218 48 25 54 23 90 -19z"/>
<path d="M2520 5404 c0 -21 4 -33 10 -29 6 3 10 19 10 36 0 16 -4 29 -10 29
-5 0 -10 -16 -10 -36z"/>
<path d="M7492 5675 c-18 -15 -39 -40 -47 -56 -20 -37 -19 -112 1 -180 15 -51
15 -57 -2 -108 -10 -29 -29 -63 -43 -76 -74 -66 -109 -95 -115 -95 -4 0 -17
-12 -30 -27 -23 -27 -23 -27 -30 -5 -8 25 -84 62 -126 62 -15 0 -42 -10 -61
-23 -42 -28 -60 -95 -36 -136 8 -15 12 -32 10 -39 -4 -11 10 -13 68 -10 41 2
81 7 90 12 14 6 17 -7 23 -106 4 -62 9 -125 12 -140 l5 -27 -80 6 c-106 8
-126 -4 -136 -82 -5 -46 -4 -60 11 -76 28 -31 135 -24 173 13 28 26 27 12 -9
-105 -17 -54 -35 -95 -40 -92 -6 4 -10 13 -10 20 0 22 -56 81 -90 95 -43 18
-116 7 -145 -20 -14 -13 -30 -38 -36 -57 -10 -31 -9 -37 10 -57 33 -35 110
-73 164 -80 26 -4 47 -9 47 -12 0 -7 -68 -65 -106 -92 -18 -12 -56 -27 -84
-34 -27 -6 -50 -15 -50 -20 0 -16 70 -8 114 14 42 20 47 20 63 6 29 -26 134
-69 184 -75 53 -6 89 9 89 38 0 11 7 34 16 50 14 28 14 33 0 54 -9 14 -26 30
-38 36 -32 17 -131 5 -173 -21 -19 -12 -35 -17 -35 -11 0 6 4 11 10 11 13 0
103 135 121 182 8 20 16 37 19 38 3 0 27 -9 54 -21 69 -30 114 -34 180 -15 77
23 96 44 96 105 0 42 -5 54 -32 82 -18 17 -47 38 -66 46 -29 12 -37 12 -69 -4
-20 -9 -59 -34 -86 -55 -28 -20 -52 -36 -53 -35 -1 1 1 40 5 87 l6 85 55 1
c117 2 182 72 140 153 -20 40 -30 46 -80 42 -61 -4 -71 -11 -98 -69 l-26 -57
-7 60 c-9 70 5 183 26 225 18 36 54 46 103 32 88 -26 212 -18 212 14 0 7 11
30 25 50 29 43 30 52 9 83 -14 19 -23 22 -58 18 -22 -3 -53 -8 -68 -12 l-27
-7 32 72 c25 57 38 74 63 85 52 22 114 128 114 196 0 42 -38 79 -86 86 -33 4
-45 1 -72 -22z m119 -26 c17 -17 20 -28 14 -57 -10 -55 -77 -163 -92 -148 -3
2 0 14 7 25 9 18 7 23 -16 33 -23 11 -28 9 -44 -12 l-18 -24 -7 45 c-8 52 15
121 48 144 31 22 83 19 108 -6z m-100 -191 c-4 -12 -14 -24 -21 -26 -9 -3 -11
1 -7 12 4 10 7 22 7 27 0 5 7 9 15 9 11 0 12 -6 6 -22z m50 -208 c29 -16 23
-46 -15 -77 -27 -20 -32 -30 -24 -40 8 -10 -5 -13 -68 -12 -44 0 -88 4 -99 9
-19 7 -18 8 5 14 14 3 41 7 60 8 28 2 36 8 38 26 2 13 -1 29 -8 37 -9 10 -2
16 32 28 54 19 55 19 79 7z m-131 -60 c0 -10 -41 -30 -61 -30 -20 0 -8 19 19
28 36 14 42 14 42 2z m-254 -51 c40 -24 45 -42 9 -33 -29 7 -75 -18 -75 -41 0
-9 14 -24 30 -34 l31 -18 -38 -7 c-68 -11 -82 -8 -98 24 -21 40 -19 72 6 104
26 33 86 36 135 5z m14 -69 c9 -17 8 -20 -13 -20 -30 0 -40 10 -26 27 16 18
26 16 39 -7z m218 -225 c3 -46 -22 -78 -70 -90 -27 -7 -28 -7 -17 24 15 43 5
65 -26 59 -29 -6 -31 -1 -9 30 14 20 23 23 67 20 l52 -3 3 -40z m-98 -45 c0
-5 -9 -19 -21 -31 -29 -29 -51 -9 -24 21 19 21 45 27 45 10z m-110 -110 c0 -5
-7 -7 -15 -4 -22 9 -62 -4 -69 -22 -9 -22 11 -54 34 -54 21 0 28 -20 8 -21 -7
0 -35 -4 -63 -8 -67 -11 -75 -7 -75 44 0 74 2 75 96 75 48 0 84 -4 84 -10z
m-7 -35 c-1 -5 -8 -14 -17 -20 -18 -11 -42 7 -31 25 8 13 51 9 48 -5z m276
-65 c56 -54 56 -107 1 -135 -55 -29 -108 -34 -166 -18 -56 16 -72 33 -31 33
32 0 49 18 36 42 -12 22 -42 23 -74 2 -14 -9 -25 -12 -25 -6 0 15 172 122 196
122 12 0 40 -18 63 -40z m-189 -94 c0 -9 -30 -14 -35 -6 -4 6 3 10 14 10 12 0
21 -2 21 -4z m-230 -36 c14 -10 36 -37 49 -61 22 -39 22 -42 4 -26 -40 35 -91
11 -79 -38 5 -20 3 -25 -11 -25 -28 1 -96 35 -120 62 -22 23 -22 25 -5 58 9
19 28 41 42 48 30 15 84 7 120 -18z m34 -106 c23 -22 20 -34 -9 -34 -29 0 -45
28 -24 41 18 11 15 12 33 -7z m177 -134 c24 -13 24 -40 0 -71 -10 -13 -16 -30
-14 -36 8 -24 -25 -25 -104 -3 -74 20 -130 46 -120 56 2 3 21 -3 40 -12 30
-14 39 -15 52 -4 21 17 19 36 -6 54 -20 13 -20 14 -2 19 35 9 134 7 154 -3z
m-163 -47 c5 -18 -10 -16 -34 2 -18 15 -18 15 5 13 14 -2 26 -9 29 -15z"/>
<path d="M22 5680 c-12 -5 -22 -14 -22 -21 0 -6 7 -8 16 -5 9 3 27 9 40 12 13
3 24 10 24 15 0 11 -28 11 -58 -1z"/>
<path d="M12640 5394 c-13 -34 -13 -41 6 -103 14 -50 16 -52 47 -49 31 3 32 4
35 60 4 72 -17 118 -54 118 -17 0 -27 -8 -34 -26z m59 -41 c14 -49 14 -70 0
-79 -18 -11 -29 10 -36 64 -5 43 -3 52 10 52 10 0 20 -14 26 -37z"/>
<path d="M12326 5349 c-29 -34 -30 -39 -15 -91 8 -32 14 -38 38 -38 15 0 35 6
44 13 31 22 3 147 -33 147 -4 0 -20 -14 -34 -31z m48 -15 c9 -24 7 -82 -3 -89
-26 -15 -57 75 -34 98 11 12 31 7 37 -9z"/>
<path d="M12474 5190 c-79 -39 -104 -124 -104 -349 0 -140 1 -149 23 -169 20
-19 28 -20 87 -12 36 5 93 10 128 10 87 0 101 15 96 106 -12 179 -26 298 -38
323 -27 50 -106 111 -144 111 -4 0 -25 -9 -48 -20z m94 -24 c35 -19 81 -78 93
-119 5 -18 12 -100 16 -182 5 -131 4 -152 -10 -164 -24 -19 -247 -38 -257 -20
-13 19 -23 214 -16 288 15 165 85 244 174 197z"/>
<path d="M12488 5124 c-47 -25 -70 -85 -76 -199 -2 -56 -2 -123 2 -148 9 -58
21 -62 152 -52 l94 7 -6 136 c-8 172 -15 202 -59 241 -39 34 -66 38 -107 15z
m96 -36 l37 -33 9 -145 c5 -80 6 -148 2 -151 -11 -10 -166 -19 -180 -11 -18
12 -25 113 -14 215 9 81 13 92 43 123 18 19 40 34 49 34 9 0 33 -15 54 -32z"/>
<path d="M12586 4923 c9 -37 24 -53 24 -26 0 28 -10 53 -21 53 -5 0 -6 -12 -3
-27z"/>
<path d="M104 4147 c-43 -25 -104 -81 -104 -95 0 -9 22 4 55 32 70 60 110 68
151 32 32 -29 31 -31 -35 -68 -24 -13 -31 -24 -31 -47 0 -27 -7 -34 -50 -56
-48 -25 -50 -27 -50 -69 0 -30 -6 -48 -20 -61 -22 -20 -26 -35 -10 -35 24 0
50 41 50 80 0 37 3 42 49 71 41 24 50 36 53 62 2 27 10 35 46 51 32 15 42 25
42 43 0 13 2 23 5 23 15 0 126 -62 154 -86 29 -24 111 -134 111 -148 0 -4 -6
-6 -14 -6 -18 0 -25 -20 -19 -53 5 -23 2 -27 -19 -27 -36 0 -56 -28 -64 -88
-6 -49 -8 -52 -35 -52 -45 0 -69 -31 -69 -89 l0 -49 -72 20 c-81 23 -137 48
-185 84 -36 27 -43 29 -43 11 0 -20 74 -63 169 -98 191 -70 369 -40 428 74 25
49 13 141 -31 234 -82 171 -171 255 -325 303 -72 23 -107 25 -137 7z m471
-410 c20 -88 9 -134 -41 -176 -58 -47 -194 -71 -208 -35 -21 54 5 104 53 104
39 0 51 17 51 77 l0 53 40 0 c43 0 43 0 41 65 l-1 40 25 -30 c14 -17 31 -58
40 -98z"/>
<path d="M19153 4018 c-53 -58 -67 -103 -60 -189 7 -81 32 -143 76 -183 41
-39 39 -20 -4 44 -19 29 -35 56 -35 61 0 4 16 11 35 15 20 3 35 12 35 20 0 11
-7 13 -27 8 -16 -4 -32 -7 -38 -8 -11 -1 -19 106 -11 139 3 12 22 43 41 69 48
62 40 79 -12 24z"/>
<path d="M360 4005 c-17 -21 5 -55 35 -55 27 0 31 11 15 39 -13 25 -36 33 -50
16z m37 -20 c8 -22 -6 -33 -17 -15 -13 20 -12 30 0 30 6 0 13 -7 17 -15z"/>
<path d="M5055 3909 c-165 -78 -193 -86 -224 -69 -19 9 -39 3 -145 -49 -101
-49 -133 -70 -171 -113 -72 -80 -94 -132 -96 -225 -3 -97 22 -151 112 -248 72
-76 168 -128 264 -143 83 -12 211 0 260 25 22 11 51 23 65 26 15 4 33 21 45
44 11 20 34 45 50 54 37 22 244 79 284 79 20 0 36 9 50 26 18 23 21 41 21 135
0 92 -4 119 -28 187 -48 135 -163 301 -229 328 -62 26 -100 18 -258 -57z m256
18 c50 -42 230 -417 229 -475 -1 -24 -21 14 -62 113 -18 44 -50 109 -72 145
-21 36 -49 88 -62 115 -12 28 -34 67 -48 88 -29 42 -23 47 15 14z m-37 -36
c23 -19 233 -445 242 -489 5 -24 1 -36 -19 -56 -22 -22 -57 -35 -57 -22 0 25
-36 179 -54 232 -42 126 -130 277 -188 323 -42 34 -45 20 -5 -23 53 -56 126
-190 164 -301 38 -110 66 -236 55 -247 -4 -3 -23 -11 -43 -16 l-37 -10 5 37
c8 62 -66 283 -134 401 -15 25 -51 71 -81 102 -38 40 -50 59 -41 63 50 18 128
32 149 28 14 -3 34 -13 44 -22z m-175 -76 c66 -72 109 -147 161 -285 58 -153
65 -185 50 -225 -13 -34 -26 -45 -55 -45 -19 0 -22 10 -33 103 -6 57 -20 129
-32 159 -21 58 -123 227 -172 288 -20 25 -24 36 -15 42 27 17 56 6 96 -37z
m-212 -135 c85 -157 151 -296 200 -425 21 -55 40 -104 42 -110 2 -5 -2 -5 -10
2 -15 12 -31 42 -90 173 -19 41 -80 167 -136 279 -98 196 -122 255 -89 221 8
-8 45 -71 83 -140z m171 27 c39 -57 81 -128 93 -158 50 -124 66 -291 30 -323
-17 -15 -19 -15 -25 -1 -3 9 -6 26 -6 38 0 36 -55 217 -90 297 -49 112 -138
235 -156 217 -2 -2 14 -28 37 -58 40 -53 107 -183 136 -263 8 -22 25 -86 37
-141 13 -55 27 -108 31 -117 4 -10 3 -18 -3 -18 -5 0 -22 39 -37 88 -14 48
-74 183 -132 301 -59 118 -102 216 -97 218 5 2 27 12 49 22 23 11 45 15 51 10
6 -5 43 -55 82 -112z m427 -8 c30 -62 55 -124 55 -138 -1 -20 -6 -13 -24 29
-13 30 -39 88 -59 127 -35 69 -43 93 -32 93 3 0 30 -50 60 -111z m-710 80 c-4
-5 -12 -9 -18 -9 -7 0 -40 -13 -74 -29 -76 -36 -146 -99 -184 -166 -25 -44
-29 -60 -29 -130 0 -71 4 -86 30 -130 16 -27 35 -57 42 -66 32 -38 108 -81
197 -110 83 -27 107 -30 176 -27 49 3 93 11 113 22 52 27 75 16 27 -13 -90
-53 -254 -47 -382 14 -88 41 -151 102 -195 187 -27 53 -32 74 -33 133 0 59 5
78 30 123 42 78 127 152 216 189 70 29 97 33 84 12z m23 -51 c2 -11 -3 -18
-11 -18 -21 0 -85 -76 -92 -110 -10 -44 18 -88 61 -96 27 -5 34 -10 29 -23
-28 -71 -3 -116 64 -115 48 2 50 -4 16 -34 -36 -32 -33 -70 10 -112 38 -37 72
-43 148 -26 50 11 49 -7 -2 -34 -61 -31 -134 -35 -223 -11 -203 53 -294 136
-306 278 -10 131 69 235 238 315 26 12 65 4 68 -14z m59 -109 c17 -35 32 -67
32 -70 2 -12 -95 -25 -127 -17 -43 11 -51 46 -22 93 24 38 59 67 75 62 5 -2
24 -32 42 -68z m67 -130 l18 -31 -28 -28 c-40 -38 -66 -45 -94 -22 -31 25 -21
66 23 92 44 27 60 25 81 -11z m44 -93 c13 -28 7 -36 -25 -36 -25 0 -32 27 -11
48 17 17 23 15 36 -12z m43 -96 c10 -14 20 -36 21 -50 3 -22 -2 -26 -42 -33
-81 -16 -138 30 -112 89 11 23 17 25 64 22 41 -2 55 -8 69 -28z"/>
<path d="M284 3925 c-9 -21 14 -45 42 -45 29 0 31 20 6 43 -23 21 -41 22 -48
2z m44 -24 c3 -8 -1 -12 -9 -9 -7 2 -15 10 -17 17 -3 8 1 12 9 9 7 -2 15 -10
17 -17z"/>
<path d="M14745 3872 c-85 -32 -140 -65 -200 -120 -48 -44 -59 -61 -66 -99 -5
-26 -19 -58 -32 -71 -29 -31 -183 -145 -225 -166 -61 -31 -60 -89 2 -231 43
-95 236 -273 350 -320 48 -20 115 -19 147 3 15 9 82 74 150 145 121 124 125
127 167 127 23 0 42 5 42 10 0 6 38 51 84 99 87 93 114 143 138 256 15 70 -20
193 -70 243 -46 45 -126 95 -187 117 -75 27 -236 31 -300 7z m270 -27 c96 -26
197 -101 237 -178 40 -79 32 -193 -22 -297 -20 -38 -134 -160 -150 -160 -18 0
-10 12 34 51 24 22 58 60 75 86 34 51 71 158 71 204 0 54 -41 142 -86 186 -72
70 -114 86 -229 91 -163 7 -267 -22 -336 -93 -33 -33 -59 -45 -59 -26 0 5 19
25 41 46 100 90 278 128 424 90z m-9 -46 c140 -25 224 -123 224 -261 0 -76
-26 -138 -94 -220 -53 -65 -75 -81 -96 -68 -12 7 -11 15 8 48 12 22 25 60 28
85 6 42 4 49 -24 77 -27 27 -36 30 -67 24 -35 -6 -35 -6 -35 29 0 26 -7 41
-26 56 -32 25 -52 26 -82 5 -28 -19 -41 -10 -24 16 13 22 16 69 4 87 -4 7 -25
20 -46 28 -48 20 -90 14 -136 -20 -39 -28 -50 -31 -50 -11 0 20 66 75 116 97
79 35 199 46 300 28z m-369 -216 c48 -47 166 -155 261 -240 156 -141 187 -173
164 -173 -27 0 -326 264 -423 373 -40 45 -86 97 -103 116 -61 67 10 14 101
-76z m141 91 c33 -23 30 -69 -5 -87 -58 -30 -70 -29 -107 4 -20 17 -36 37 -36
45 0 17 67 53 100 54 14 0 36 -7 48 -16z m-113 -192 c61 -64 250 -237 317
-292 5 -3 -11 -25 -35 -48 l-43 -42 -105 71 c-57 39 -128 94 -157 123 -57 55
-122 155 -147 225 -18 53 -18 53 -1 76 13 18 14 17 31 -16 28 -56 115 -169
185 -243 72 -76 202 -169 228 -164 12 3 -2 16 -43 42 -97 62 -239 208 -316
325 -38 57 -69 107 -69 110 0 3 17 -14 37 -39 21 -25 73 -83 118 -128z m121
33 c-7 -29 -23 -29 -40 -1 -9 13 -7 20 8 32 26 18 41 4 32 -31z m115 35 c29
-16 26 -74 -6 -105 -30 -31 -46 -31 -74 -1 -20 21 -21 27 -11 48 16 29 51 68
62 68 5 0 18 -5 29 -10z m-421 -62 c33 -73 86 -156 124 -196 36 -39 218 -174
259 -193 30 -14 31 -26 1 -45 -17 -12 -28 -10 -82 16 -91 43 -166 105 -268
220 -105 120 -113 133 -114 182 0 27 6 41 22 52 12 9 25 16 29 16 3 0 16 -24
29 -52z m-100 -34 c0 -33 13 -55 75 -134 85 -106 218 -225 289 -260 35 -16 69
-30 75 -30 18 0 12 -14 -12 -31 -128 -93 -140 -93 -249 3 -119 103 -301 278
-315 302 -18 31 -16 52 10 82 l23 27 51 -79 c71 -112 142 -194 231 -265 79
-64 142 -99 177 -98 13 0 4 8 -25 24 -118 61 -270 210 -368 359 l-45 70 33 28
c42 35 50 35 50 2z m655 -8 c15 -11 17 -21 12 -61 -8 -52 -30 -95 -50 -95 -11
0 -117 96 -117 106 0 2 21 18 47 34 51 33 79 37 108 16z m-713 -267 c29 -34
80 -82 113 -108 33 -25 87 -71 121 -102 34 -31 71 -62 83 -69 32 -16 18 -25
-19 -11 -55 19 -342 288 -384 359 -20 33 36 -11 86 -69z m103 -163 c33 -30 55
-55 48 -56 -17 0 -213 192 -213 209 0 8 24 -11 53 -42 28 -31 79 -81 112 -111z"/>
<path d="M226 3841 c-15 -24 29 -62 54 -46 14 9 12 21 -6 39 -17 18 -40 21
-48 7z m44 -22 c0 -5 -7 -9 -15 -9 -8 0 -15 7 -15 15 0 9 6 12 15 9 8 -4 15
-10 15 -15z"/>
<path d="M165 3780 c-11 -18 15 -50 40 -50 18 0 25 5 25 20 0 29 -51 53 -65
30z m49 -19 c3 -4 3 -11 0 -14 -8 -8 -34 3 -34 14 0 11 27 12 34 0z"/>
<path d="M94 3675 c-8 -20 13 -45 37 -45 27 0 33 19 13 41 -21 23 -42 25 -50
4z m44 -24 c3 -8 -1 -12 -9 -9 -7 2 -15 10 -17 17 -3 8 1 12 9 9 7 -2 15 -10
17 -17z"/>
<path d="M9874 3622 c-104 -37 -192 -91 -244 -150 -48 -54 -106 -169 -115
-227 -6 -36 -2 -47 43 -116 59 -90 112 -146 158 -165 19 -8 67 -14 112 -14 64
0 87 5 130 26 90 45 156 137 217 304 23 65 26 86 22 155 -11 196 -118 258
-323 187z m199 -6 c69 -28 111 -109 105 -201 -3 -43 -6 -51 -29 -59 -42 -14
-83 11 -87 54 -5 48 -18 60 -67 60 -52 0 -69 17 -60 60 7 32 4 34 -47 30 -70
-4 -19 43 65 60 63 12 84 11 120 -4z m-239 -61 c3 -9 18 -15 40 -15 32 0 35
-3 38 -32 3 -36 28 -53 91 -63 34 -6 37 -8 37 -40 0 -50 29 -75 86 -75 40 0
45 -2 39 -17 -4 -10 -15 -41 -25 -69 -28 -79 -49 -114 -104 -172 -45 -48 -109
-92 -134 -92 -5 0 -12 21 -16 47 -8 62 -37 93 -88 93 -37 0 -39 2 -62 54 -20
45 -29 55 -53 58 -22 2 -33 12 -51 51 -16 34 -28 47 -43 47 -20 0 -20 2 7 48
47 81 79 116 145 155 70 41 84 44 93 22z m-217 -295 c12 -31 23 -42 47 -48 24
-6 37 -20 57 -57 23 -45 29 -50 70 -57 24 -4 49 -15 55 -23 17 -23 27 -86 16
-97 -15 -15 -130 3 -165 26 -34 23 -128 133 -153 180 -17 31 -12 70 13 99 25
27 43 20 60 -23z"/>
<path d="M9685 3464 c-20 -20 -15 -38 12 -42 22 -3 57 34 47 50 -9 13 -41 9
-59 -8z m43 -6 c-3 -7 -13 -15 -24 -17 -16 -3 -17 -1 -5 13 16 19 34 21 29 4z"/>
<path d="M9759 3391 c-20 -16 -21 -21 -10 -35 7 -9 17 -16 22 -16 15 0 39 31
39 51 0 24 -21 24 -51 0z m35 -16 c-6 -16 -34 -21 -34 -7 0 13 11 22 26 22 8
0 11 -6 8 -15z"/>
<path d="M9842 3328 c-18 -18 -15 -48 6 -48 23 0 42 19 42 42 0 21 -30 24 -48
6z m24 -23 c-3 -9 -11 -13 -16 -10 -8 5 -7 11 1 21 14 18 24 11 15 -11z"/>
<path d="M9902 3268 c-15 -15 -16 -45 -1 -54 16 -9 53 31 46 50 -8 19 -28 21
-45 4z m28 -17 c0 -12 -20 -25 -27 -18 -7 7 6 27 18 27 5 0 9 -4 9 -9z"/>
<path d="M9996 3181 c-20 -22 -15 -51 7 -51 20 0 39 26 35 46 -5 25 -22 27
-42 5z m28 -16 c-4 -8 -12 -15 -20 -15 -8 0 -11 6 -8 15 4 8 12 15 20 15 8 0
11 -6 8 -15z"/>
<path d="M6915 2730 c-4 -6 -2 -43 4 -83 6 -39 15 -105 21 -145 10 -73 29
-124 51 -138 7 -4 28 -7 47 -8 45 -1 52 -20 15 -39 -74 -39 -80 -88 -16 -122
37 -19 38 -22 43 -82 5 -60 7 -65 61 -120 66 -67 91 -112 119 -217 20 -70 20
-77 5 -100 -25 -37 -16 -80 16 -84 22 -3 172 73 217 110 20 17 14 65 -15 118
-22 40 -25 52 -15 59 11 6 11 17 2 52 -21 79 -59 146 -125 220 -36 39 -67 81
-70 93 -2 12 -6 38 -9 60 -10 72 -49 92 -123 61 -20 -8 -38 -13 -41 -10 -3 3
0 20 6 38 17 46 15 108 -4 135 -8 12 -46 47 -84 77 -55 44 -72 64 -80 95 -11
42 -15 46 -25 30z m100 -152 c63 -47 85 -81 85 -132 0 -35 -13 -55 -25 -36 -9
15 -25 2 -18 -15 8 -22 -40 -19 -60 3 -8 9 -20 35 -25 57 -13 51 -26 165 -18
165 3 0 30 -19 61 -42z m209 -233 c8 -8 18 -37 22 -63 9 -61 16 -75 81 -147
52 -57 105 -151 119 -207 5 -22 3 -28 -10 -28 -21 0 -22 2 21 -85 29 -58 35
-79 27 -92 -15 -25 -182 -116 -199 -109 -21 8 -19 36 5 61 19 20 19 21 -8 116
-33 113 -68 177 -121 220 -45 36 -66 77 -58 116 8 42 -8 70 -53 93 -27 14 -40
27 -38 38 3 17 152 101 180 102 9 0 23 -7 32 -15z"/>
<path d="M7000 2477 c0 -38 22 -73 39 -63 8 5 7 13 -4 29 -25 35 -18 56 8 25
25 -31 37 -35 37 -15 0 21 -39 57 -60 57 -16 0 -20 -7 -20 -33z"/>
<path d="M7140 2182 c0 -4 5 -13 11 -19 7 -7 17 -33 24 -60 9 -36 17 -48 31
-48 10 0 20 8 22 18 2 10 -3 17 -11 17 -8 0 -17 14 -21 32 -3 17 -14 40 -23
50 -17 19 -33 24 -33 10z"/>
<path d="M7264 2098 c4 -18 22 -57 41 -85 40 -60 44 -74 15 -48 -25 22 -36 14
-20 -15 15 -28 54 -23 58 7 2 12 -10 40 -27 63 -16 23 -35 57 -41 76 -15 44
-35 45 -26 2z"/>
<path d="M7345 1803 c16 -44 17 -74 1 -100 l-17 -28 25 28 c27 30 33 65 16 98
-13 24 -35 25 -25 2z"/>
<path d="M12493 2659 c-140 -27 -221 -121 -258 -297 -42 -201 2 -360 113 -413
82 -40 195 -2 328 108 107 90 166 194 180 317 11 96 2 119 -79 187 -122 103
-173 120 -284 98z m164 -42 c61 -32 162 -114 175 -142 12 -27 6 -61 -16 -90
-15 -19 -17 -19 -51 22 -31 36 -40 41 -64 37 -24 -5 -33 0 -65 40 -37 44 -39
45 -89 43 -47 -2 -52 0 -74 32 -33 49 -27 64 32 78 60 14 96 9 152 -20z m-213
-53 c22 -53 58 -74 115 -67 33 4 39 1 69 -35 25 -33 40 -41 69 -44 30 -2 42
-10 58 -36 15 -24 26 -31 43 -29 29 5 29 -14 -1 -96 -27 -73 -47 -102 -112
-159 -37 -33 -48 -38 -60 -28 -9 8 -28 10 -50 6 -30 -6 -35 -4 -35 13 0 35
-27 51 -89 51 -56 0 -57 1 -70 35 -14 40 -41 51 -103 41 l-41 -7 7 75 c7 79
32 164 62 213 24 38 96 113 109 113 5 0 19 -21 29 -46z m-79 -412 l20 -43 57
6 c50 6 58 4 67 -13 6 -11 8 -22 4 -25 -3 -4 0 -13 6 -21 9 -11 20 -12 44 -5
54 15 63 12 38 -15 -33 -35 -138 -79 -189 -79 -75 0 -152 86 -169 186 -5 32
-2 38 18 46 13 6 38 9 54 8 25 -2 33 -9 50 -45z"/>
<path d="M2746 2646 c-91 -34 -134 -114 -121 -228 18 -158 91 -312 184 -386
56 -45 147 -92 178 -92 34 0 175 76 228 122 23 21 47 50 53 65 18 47 32 158
26 194 -22 112 -132 222 -301 301 -79 37 -184 47 -247 24z m180 -27 c10 -11
11 -24 4 -53 -10 -44 -24 -57 -60 -55 -56 3 -58 1 -70 -57 l-12 -56 -41 4
c-42 3 -42 3 -51 -39 -5 -24 -12 -43 -16 -43 -15 0 -32 92 -28 155 5 77 25
110 89 143 37 20 55 23 108 19 35 -3 69 -11 77 -18z m118 -46 c113 -59 204
-162 222 -252 l7 -31 -54 0 c-62 0 -99 -26 -99 -71 0 -32 -12 -43 -68 -60 -34
-10 -47 -20 -60 -48 -14 -29 -24 -37 -59 -44 -33 -6 -43 -13 -43 -28 0 -31
-22 -22 -83 32 -57 50 -92 105 -117 182 -11 35 -10 40 9 53 13 10 21 26 21 45
0 26 2 29 25 23 35 -9 63 18 77 73 10 41 12 43 49 43 49 0 75 24 84 79 4 23 9
41 12 41 3 0 37 -17 77 -37z m226 -318 c0 -52 -25 -121 -58 -157 -39 -44 -186
-138 -215 -138 -29 0 -75 28 -82 51 -8 26 -7 27 45 42 36 10 45 18 52 44 7 28
15 34 62 47 53 16 66 29 66 67 0 34 36 59 85 59 33 0 45 -4 45 -15z"/>
<path d="M17060 2464 c-69 -35 -135 -76 -147 -90 -25 -27 -29 -64 -12 -96 20
-36 -10 -41 -49 -7 -23 20 -42 29 -59 27 -29 -3 -37 -16 -50 -73 -7 -36 -12
-41 -53 -55 -63 -21 -63 -21 -99 -97 -37 -77 -90 -137 -171 -193 -50 -34 -61
-37 -102 -33 -39 5 -48 2 -57 -15 -6 -11 -8 -28 -5 -36 10 -27 183 -166 206
-166 13 0 41 20 69 50 31 33 52 48 62 44 21 -8 95 44 142 98 20 24 50 70 67
103 37 73 61 101 110 126 46 24 72 60 63 89 -4 12 -20 36 -36 55 -31 35 -27
48 14 45 91 -8 134 28 167 138 23 77 49 117 80 127 25 8 26 25 3 25 -10 0 -74
-30 -143 -66z m56 -19 c-3 -9 -13 -40 -22 -70 -9 -31 -28 -67 -44 -84 -40 -40
-121 -53 -89 -14 11 12 8 14 -17 11 -23 -2 -30 1 -32 18 -5 33 35 72 117 114
85 44 96 47 87 25z m-232 -226 c58 -54 67 -66 64 -93 -3 -25 -12 -35 -58 -61
-48 -27 -60 -40 -95 -105 -39 -73 -129 -181 -168 -201 -15 -8 -22 -8 -28 2 -6
11 -25 -2 -73 -50 l-65 -64 -38 26 c-77 52 -147 122 -140 140 7 20 39 22 67 5
16 -10 22 -10 32 3 7 8 39 32 70 53 77 51 125 106 159 182 28 62 59 94 90 94
30 0 69 39 69 70 0 78 27 78 114 -1z"/>
<path d="M16972 2354 c-12 -8 -22 -22 -22 -30 0 -20 10 -18 37 8 27 25 33 5 6
-24 -17 -19 -12 -34 9 -25 19 7 42 53 35 71 -8 20 -36 20 -65 0z"/>
<path d="M16729 2101 c-15 -14 -37 -34 -50 -43 -22 -15 -23 -18 -7 -33 18 -19
42 -11 34 11 -3 8 -1 14 3 14 13 0 71 56 71 69 0 18 -23 10 -51 -18z"/>
<path d="M16692 1956 c-22 -24 -45 -53 -51 -65 -7 -11 -16 -21 -22 -21 -6 0
-6 8 1 21 14 26 6 36 -15 19 -22 -18 -15 -54 12 -58 15 -2 29 8 49 35 15 21
46 55 68 75 35 32 38 37 20 38 -13 0 -38 -18 -62 -44z"/>
<path d="M16455 1799 c-16 -16 -29 -20 -59 -16 -44 6 -37 -10 9 -18 31 -6 95
24 95 45 0 16 -23 10 -45 -11z"/>
<path d="M9374 1002 c-23 -15 -64 -113 -76 -181 -19 -110 0 -313 36 -383 15
-29 47 -92 71 -139 27 -53 58 -98 80 -116 l36 -30 -36 -43 c-33 -40 -65 -91
-65 -105 0 -3 6 -5 13 -5 6 0 23 21 37 47 29 55 121 127 183 144 57 15 207 3
276 -23 57 -22 139 -89 169 -140 9 -15 22 -28 29 -28 16 0 -16 68 -41 89 -9 8
-16 18 -16 24 0 5 29 40 64 77 35 38 70 84 77 104 15 41 29 47 29 14 0 -35 32
-80 95 -134 81 -70 100 -81 119 -65 29 24 37 103 21 196 -24 134 -79 226 -161
266 -56 27 -119 22 -191 -15 -90 -46 -223 -212 -257 -320 -6 -17 -13 -18 -73
-12 -36 4 -71 9 -76 13 -5 3 -6 19 -3 35 14 68 -48 333 -115 493 -69 166 -171
273 -225 237z m87 -59 c45 -41 111 -168 154 -296 59 -179 90 -378 65 -417 -17
-25 -27 4 -33 93 -7 120 -79 303 -145 370 -25 26 -49 47 -52 47 -13 0 -40
-109 -40 -162 0 -30 7 -79 16 -109 19 -64 86 -200 122 -247 18 -24 22 -36 14
-44 -41 -41 -178 181 -227 368 -33 125 -14 335 36 405 27 38 41 37 90 -8z m44
-308 c52 -81 92 -190 110 -296 19 -118 19 -139 0 -139 -37 0 -147 200 -170
308 -8 38 -12 77 -10 88 2 10 7 36 10 57 3 20 10 37 16 37 5 0 25 -25 44 -55z
m823 -105 c50 -36 88 -91 108 -157 20 -67 28 -182 15 -216 -10 -25 -13 -27
-33 -16 -12 6 -50 39 -84 73 -65 64 -73 83 -89 209 -6 47 -25 57 -25 14 0 -15
-6 -23 -19 -24 -69 -5 -190 -102 -225 -181 -18 -40 -37 -51 -62 -34 -22 14
-21 38 6 92 60 119 160 223 252 259 50 20 113 13 156 -19z m-117 -162 c-30
-74 -66 -129 -115 -178 -59 -57 -73 -59 -100 -17 -24 37 62 149 147 191 65 33
79 33 68 4z"/>
<path d="M18974 1002 c-23 -15 -64 -113 -76 -181 -19 -110 0 -313 36 -383 15
-29 47 -92 71 -139 27 -53 58 -98 80 -116 l36 -30 -36 -43 c-33 -40 -65 -91
-65 -105 0 -3 6 -5 13 -5 6 0 23 21 37 46 14 27 46 63 77 86 29 22 53 47 53
54 0 8 -15 35 -34 61 -76 107 -144 287 -131 349 2 10 7 36 10 57 3 20 10 37
16 37 15 0 77 -103 109 -182 29 -73 29 -73 30 -32 0 62 -45 162 -98 217 -25
26 -49 47 -52 47 -13 0 -40 -109 -40 -162 0 -30 7 -79 16 -109 19 -64 86 -200
122 -247 18 -24 22 -36 14 -44 -41 -41 -178 181 -227 368 -21 78 -21 242 0
318 17 64 49 116 71 116 34 0 96 -75 145 -174 41 -86 49 -96 49 -68 0 61 -86
205 -148 247 -38 26 -59 30 -78 17z"/>
<path d="M16710 800 c-59 -11 -185 -56 -236 -85 -84 -49 -163 -161 -164 -232
0 -92 83 -173 245 -238 123 -49 237 -50 361 -4 89 34 112 60 136 159 23 100
27 195 8 230 -27 51 -101 129 -143 148 -49 23 -143 33 -207 22z m78 -40 c-7
-11 -19 -20 -26 -20 -15 0 -72 28 -72 35 0 3 25 5 55 5 53 0 55 -1 43 -20z
m102 4 c22 -9 40 -21 40 -28 -1 -6 -14 -27 -30 -46 -35 -40 -38 -77 -10 -113
24 -31 25 -37 3 -98 -15 -40 -15 -53 -5 -69 16 -27 15 -47 -5 -81 -15 -24 -15
-33 -5 -49 15 -24 4 -31 -50 -34 -30 -1 -33 2 -49 54 -13 41 -18 91 -18 190
-1 140 11 217 43 264 19 30 31 32 86 10z m-174 -24 l27 -11 -44 -22 -44 -22
-17 30 c-9 16 -17 33 -18 37 0 11 34 15 52 6 9 -4 29 -13 44 -18z m-93 -38
c24 -61 29 -122 17 -210 -11 -80 -43 -218 -53 -229 -3 -2 -14 0 -25 6 -14 7
-18 17 -15 31 4 13 -2 29 -16 43 -21 23 -21 23 -1 40 27 23 25 60 -5 104 l-24
36 24 29 c34 40 32 75 -7 115 l-31 32 44 20 c64 28 75 26 92 -17z m131 -31
c-4 -22 -11 -41 -16 -41 -15 0 -68 33 -68 43 0 8 82 48 88 43 1 -2 0 -22 -4
-45z m268 -30 c33 -52 35 -94 14 -218 -16 -90 -29 -116 -63 -132 -30 -14 -70
-14 -78 -1 -3 5 3 27 15 49 19 38 19 42 4 74 -15 32 -15 36 5 75 26 52 26 53
-4 98 -14 20 -25 40 -25 44 0 4 14 26 31 49 30 42 31 43 51 24 12 -10 34 -38
50 -62z m-518 8 c32 -38 32 -50 1 -87 -14 -17 -25 -35 -25 -42 0 -6 11 -26 25
-44 14 -18 25 -40 25 -48 0 -9 -11 -23 -25 -32 -14 -9 -25 -21 -25 -25 0 -5
11 -23 25 -39 14 -17 25 -32 25 -35 0 -3 -16 0 -37 6 -48 15 -139 99 -153 141
-18 56 4 121 63 184 28 28 56 52 63 52 7 0 24 -14 38 -31z m216 -38 c0 -8 -41
-24 -46 -18 -1 1 -6 15 -10 30 l-7 29 32 -16 c17 -9 31 -20 31 -25z m20 -46
c0 -41 -5 -43 -37 -13 l-24 22 23 13 c34 18 38 16 38 -22z m-20 -55 c0 -6 -44
-30 -55 -30 -7 0 -6 56 1 63 7 7 54 -21 54 -33z m20 -45 c0 -19 -2 -35 -5 -35
-2 0 -19 9 -36 19 l-31 19 28 16 c41 22 44 20 44 -19z m-36 -39 l40 -24 -52
-26 c-28 -14 -53 -26 -55 -26 -2 0 1 23 7 50 5 28 12 50 15 50 4 0 24 -11 45
-24z m40 -68 c3 -13 6 -31 6 -41 0 -19 -11 -18 -75 8 l-30 12 40 21 c50 27 51
27 59 0z m-44 -59 c51 -19 80 -41 80 -61 0 -12 -102 -10 -139 3 -32 11 -35 18
-25 57 8 27 15 27 84 1z"/>
<path d="M6415 759 c-49 -17 -109 -41 -131 -54 -55 -32 -139 -126 -154 -171
-17 -51 -8 -125 20 -164 50 -70 236 -162 355 -175 103 -11 267 36 317 92 23
26 58 174 58 249 0 49 -5 68 -29 105 -73 113 -135 149 -261 149 -68 0 -103 -6
-175 -31z m185 5 c0 -3 -4 -14 -10 -24 -9 -17 -12 -18 -50 -3 -22 9 -37 20
-34 24 6 10 94 13 94 3z m108 -17 c17 -6 32 -14 32 -18 0 -3 -13 -23 -30 -44
-36 -45 -39 -91 -10 -128 25 -31 25 -34 1 -88 -18 -40 -19 -45 -3 -71 15 -26
15 -30 -6 -72 -19 -41 -20 -47 -6 -61 14 -13 13 -16 -11 -25 -53 -20 -71 -13
-85 33 -21 71 -27 155 -20 282 5 84 13 132 25 156 33 65 31 64 113 36z m-197
-15 l37 -17 -45 -21 -44 -21 -14 34 c-8 20 -15 37 -15 39 0 10 49 2 81 -14z
m-86 -33 c25 -48 33 -124 23 -213 -10 -90 -46 -236 -58 -236 -26 0 -39 14 -34
35 4 16 -1 29 -17 44 l-23 21 22 23 c29 30 28 54 -4 100 l-25 38 25 30 c34 40
33 71 -5 114 l-31 35 43 19 c60 26 66 26 84 -10z m384 -41 c21 -29 42 -67 46
-85 7 -34 -9 -177 -26 -230 -13 -41 -53 -73 -90 -73 -37 0 -43 13 -24 49 18
36 19 65 3 90 -9 15 -7 29 11 71 l22 52 -26 38 c-18 26 -25 45 -20 59 6 20 52
81 61 81 2 0 21 -24 43 -52z m-246 10 c-8 -48 -16 -52 -59 -30 l-38 20 34 21
c53 32 71 28 63 -11z m-246 -37 c25 -36 21 -53 -20 -99 l-21 -22 22 -28 c12
-15 28 -38 34 -51 11 -21 9 -26 -15 -45 -34 -27 -34 -33 0 -68 14 -15 24 -30
21 -33 -10 -10 -80 24 -125 61 -70 57 -84 99 -62 178 12 45 104 148 128 144 8
-2 25 -18 38 -37z m188 -13 c31 -14 32 -24 3 -32 -35 -9 -38 -8 -38 19 0 29 0
29 35 13z m45 -63 c0 -40 -2 -41 -35 -19 -31 20 -31 28 -2 42 34 16 37 15 37
-23z m-33 -47 c22 -21 33 -41 33 -60 0 -15 -2 -28 -5 -28 -9 0 -65 30 -65 35
0 2 12 12 28 20 25 15 15 14 -23 -1 -12 -5 -15 2 -15 30 0 20 3 36 7 36 4 0
22 -14 40 -32z m-11 -89 c19 -11 34 -24 34 -28 0 -7 -90 -54 -95 -49 -5 4 18
98 23 98 3 0 20 -9 38 -21z m49 -90 c4 -22 5 -42 3 -44 -1 -1 -25 7 -53 19
l-50 23 40 21 c22 12 43 21 47 22 3 0 9 -18 13 -41z m-48 -41 c43 -16 65 -30
73 -47 l11 -24 -74 5 c-94 6 -106 13 -95 56 5 17 12 32 16 32 4 0 35 -10 69
-22z"/>
<path d="M1 722 c-1 -18 8 -60 20 -94 54 -160 83 -361 59 -398 -17 -25 -27 4
-33 93 -3 48 -13 103 -25 132 l-21 50 0 -45 c0 -25 6 -81 14 -125 19 -105 19
-135 0 -135 -8 0 -15 -6 -15 -14 0 -11 7 -11 42 1 57 20 210 10 287 -19 57
-22 139 -89 169 -140 9 -15 22 -28 29 -28 16 0 -16 68 -41 89 -9 8 -16 18 -16
24 0 5 29 40 64 77 35 38 70 84 77 104 15 41 29 47 29 14 0 -35 32 -80 95
-134 81 -70 100 -81 119 -65 29 24 37 103 21 196 -24 134 -79 226 -161 266
-56 27 -119 22 -191 -15 -90 -46 -223 -212 -257 -320 -6 -17 -13 -18 -73 -12
-36 4 -71 9 -76 13 -5 3 -6 19 -3 35 12 60 -48 335 -98 449 l-14 34 -1 -33z
m727 -192 c50 -36 88 -91 108 -157 20 -67 28 -182 15 -216 -10 -25 -13 -27
-33 -16 -12 6 -50 39 -84 73 -65 64 -73 83 -89 209 -6 47 -25 57 -25 14 0 -15
-6 -23 -19 -24 -69 -5 -190 -102 -225 -181 -18 -40 -37 -51 -62 -34 -22 14
-21 38 6 92 60 119 160 223 252 259 50 20 113 13 156 -19z m-117 -162 c-30
-74 -66 -129 -115 -178 -59 -57 -73 -59 -100 -17 -24 37 62 149 147 191 65 33
79 33 68 4z"/>
<path d="M4545 688 c-22 -11 -95 -74 -162 -140 l-121 -119 -31 15 c-37 20
-113 21 -149 2 -15 -8 -70 -46 -122 -85 -90 -68 -160 -101 -217 -101 -33 0
-63 -34 -63 -72 0 -32 44 -135 73 -171 8 -9 22 -17 31 -17 14 0 13 5 -7 33
-70 92 -88 188 -38 195 19 3 39 -11 93 -68 l68 -72 -25 -20 c-28 -22 -35 -68
-9 -68 9 0 14 6 11 13 -6 17 11 47 28 47 23 0 28 -20 10 -40 -16 -17 -15 -18
29 -18 l45 1 -22 31 c-47 67 -110 143 -145 173 l-36 31 41 11 c22 6 91 47 154
92 63 45 125 85 139 91 68 26 152 -34 214 -156 37 -71 38 -78 28 -114 -8 -26
-33 -59 -76 -100 -49 -48 -60 -62 -44 -62 33 0 95 57 122 112 30 59 33 115 10
159 -8 17 -14 32 -12 33 2 1 30 15 62 31 68 32 242 160 280 206 28 33 35 92
13 119 -41 53 -105 63 -172 28z m110 -14 c18 -8 38 -28 45 -44 10 -25 9 -34
-8 -62 -33 -53 -159 -146 -275 -205 l-71 -35 -28 33 c-15 18 -28 41 -28 50 0
24 219 232 271 257 52 26 52 26 94 6z"/>
<path d="M14145 689 c-22 -11 -92 -72 -157 -136 -107 -107 -118 -115 -145
-108 -49 12 -112 17 -138 11 -13 -3 -70 -41 -127 -83 -101 -76 -175 -112 -230
-113 -38 0 -68 -33 -68 -72 0 -32 44 -135 73 -171 8 -9 22 -17 31 -17 14 0 13
5 -7 33 -70 92 -88 188 -38 195 19 3 39 -11 93 -68 l68 -72 -25 -20 c-28 -22
-35 -68 -9 -68 9 0 14 6 11 13 -6 17 11 47 28 47 23 0 28 -20 10 -40 -16 -17
-15 -18 29 -18 l45 1 -22 31 c-47 67 -110 143 -145 173 l-36 31 41 11 c22 6
91 47 154 92 63 45 125 85 139 91 68 26 152 -34 214 -156 37 -71 38 -78 28
-114 -8 -26 -33 -59 -76 -100 -49 -48 -60 -62 -44 -62 33 0 95 57 122 112 30
59 33 115 10 159 -8 17 -14 32 -12 33 2 1 30 15 62 31 68 32 242 160 280 206
28 33 35 92 13 119 -41 52 -104 63 -172 29z m110 -15 c19 -8 38 -28 45 -45 11
-24 10 -33 -5 -56 -39 -59 -160 -150 -278 -210 l-71 -35 -28 33 c-15 18 -28
41 -28 50 0 24 219 232 271 257 52 26 52 26 94 6z"/>
<path d="M17 50 c-9 -6 -17 -20 -17 -31 0 -19 1 -19 16 -5 20 20 60 21 68 1 6
-16 46 -21 46 -7 0 31 -81 61 -113 42z"/>
<path d="M9606 39 c-27 -21 -34 -39 -15 -39 6 0 17 7 25 15 20 19 60 19 68 0
6 -16 46 -21 46 -6 0 16 -52 51 -75 51 -12 0 -34 -9 -49 -21z"/>
<path d="M270 20 c-12 -23 -1 -26 32 -9 15 8 27 8 44 -2 30 -16 46 -2 20 17
-30 21 -83 18 -96 -6z"/>
<path d="M9870 20 c-12 -23 -1 -26 32 -9 15 8 27 8 44 -2 30 -16 46 -2 20 17
-30 21 -83 18 -96 -6z"/>
<path d="M19186 21 c-4 -7 -5 -15 -2 -18 9 -9 19 4 14 18 -4 11 -6 11 -12 0z"/>
</g>
</svg>
